<svg width="125" height="125" viewBox="0 0 125 125" fill="none" xmlns="http://www.w3.org/2000/svg">
<path d="M23.7539 74.9184C24.1026 74.9186 24.445 74.8254 24.7455 74.6485C25.0461 74.4716 25.2938 74.2175 25.4629 73.9126C39.2148 49.1313 76.8164 48.7407 80.9902 48.8071H81.0098C81.2663 48.8084 81.5205 48.7591 81.7579 48.6622C81.9954 48.5652 82.2114 48.4224 82.3937 48.2419C82.7618 47.8775 82.9701 47.3817 82.9727 46.8637C82.9753 46.3457 82.772 45.8479 82.4075 45.4798C82.0431 45.1117 81.5473 44.9034 81.0293 44.9008C76.5059 44.8442 36.8965 45.2622 22.0508 72.018C21.8849 72.3148 21.7995 72.6498 21.8031 72.9898C21.8067 73.3299 21.8991 73.663 22.0713 73.9562C22.2435 74.2494 22.4894 74.4925 22.7845 74.6613C23.0797 74.8301 23.4139 74.9187 23.7539 74.9184Z" fill="#B3B3B3"/>
<path d="M39.9336 40.3413C40.4129 40.1453 40.9502 40.1471 41.4282 40.3462C41.9062 40.5453 42.2859 40.9255 42.4844 41.4038L55.0059 71.8139C64.5566 57.478 82.6895 51.1069 82.8828 51.0385L84.1523 54.7338C83.9531 54.8022 64.3984 61.6635 56.4199 77.0717L56.3984 77.06C56.1965 77.4726 55.8526 77.7986 55.4297 77.978C54.9508 78.1749 54.4133 78.1737 53.9353 77.9744C53.4573 77.7752 53.0781 77.3943 52.8809 76.9155L38.8711 42.892C38.6741 42.4129 38.6753 41.8751 38.8745 41.3968C39.0737 40.9185 39.4547 40.5389 39.9336 40.3413Z" fill="#CCCCCC"/>
<path d="M96.6992 76.8066C97.0871 76.8075 97.4664 76.6928 97.7887 76.4771C98.111 76.2614 98.3618 75.9546 98.5089 75.5957C98.6561 75.2369 98.6929 74.8423 98.6148 74.4624C98.5367 74.0825 98.3471 73.7345 98.0703 73.4629C90.4082 65.916 83.334 47.7539 80.8848 41.0156H81.0547C84.8242 41.0156 87.8906 37.9492 87.8906 34.1797C87.8906 30.4102 84.8242 27.3438 81.0547 27.3438H76.9375C76.4195 27.3438 75.9227 27.5495 75.5564 27.9158C75.1901 28.2821 74.9844 28.7789 74.9844 29.2969C74.9844 29.8149 75.1901 30.3117 75.5564 30.6779C75.9227 31.0442 76.4195 31.25 76.9375 31.25H81.0547C82.6699 31.25 83.9844 32.5645 83.9844 34.1797C83.9844 35.7949 82.6699 37.1094 81.0547 37.1094H78.125C77.8155 37.1093 77.5105 37.1828 77.2349 37.3237C76.9594 37.4647 76.7214 37.6691 76.5403 37.9201C76.3593 38.1711 76.2406 38.4616 76.1938 38.7675C76.1471 39.0734 76.1737 39.3861 76.2715 39.6797C76.6328 40.7617 85.2168 66.2851 95.3262 76.2441C95.692 76.605 96.1854 76.8071 96.6992 76.8066Z" fill="#999999"/>
<path d="M83.9844 77.1484H99.2051L88.4414 66.3867L89.8242 65.0039L100.586 75.7676V60.5469H102.539V75.7676L113.301 65.0039L114.684 66.3867L103.92 77.1484H119.141V79.1016H103.92L114.684 89.8633L113.301 91.2461L102.539 80.4824V95.7031H100.586V80.4824L89.8242 91.2461L88.4414 89.8633L99.2051 79.1016H83.9844V77.1484ZM5.85938 77.1484H21.0801L10.3164 66.3867L11.6992 65.0039L22.4609 75.7676V60.5469H24.4141V75.7676L35.1758 65.0039L36.5586 66.3867L25.7949 77.1484H41.0156V79.1016H25.7949L36.5586 89.8633L35.1758 91.2461L24.4141 80.4824V95.7031H22.4609V80.4824L11.6992 91.2461L10.3164 89.8633L21.0801 79.1016H5.85938V77.1484ZM50.7812 89.8438H52.7344V82.457C52.7344 81.939 52.9401 81.4422 53.3064 81.076C53.6727 80.7097 54.1695 80.5039 54.6875 80.5039C55.2055 80.5039 55.7023 80.7097 56.0686 81.076C56.4349 81.4422 56.6406 81.939 56.6406 82.457V89.8438H58.5938C59.1118 89.8438 59.6085 90.0495 59.9748 90.4158C60.3411 90.7821 60.5469 91.2789 60.5469 91.7969C60.5469 92.3149 60.3411 92.8117 59.9748 93.1779C59.6085 93.5442 59.1118 93.75 58.5938 93.75H50.7812C50.2633 93.75 49.7665 93.5442 49.4002 93.1779C49.0339 92.8117 48.8281 92.3149 48.8281 91.7969C48.8281 91.2789 49.0339 90.7821 49.4002 90.4158C49.7665 90.0495 50.2633 89.8438 50.7812 89.8438Z" fill="#808080"/>
<path d="M54.6875 83.9844C52.5301 83.9844 50.7812 82.2355 50.7812 80.0781C50.7812 77.9208 52.5301 76.1719 54.6875 76.1719C56.8449 76.1719 58.5938 77.9208 58.5938 80.0781C58.5938 82.2355 56.8449 83.9844 54.6875 83.9844Z" fill="#90B541"/>
<path d="M51.9902 77.2681C53.2344 79.6021 55.3808 81.2095 58.1836 81.7798C57.8658 82.4378 57.3695 82.9934 56.7515 83.3832C56.1334 83.7731 55.4182 83.9815 54.6875 83.9849C52.539 83.9849 50.7812 82.227 50.7812 80.0786C50.7812 78.9751 51.25 77.981 51.9902 77.2681Z" fill="#76991F"/>
<path d="M96.6992 74.8633C96.1056 75.7444 95.763 76.7705 95.7083 77.8315C95.6536 78.8925 95.8888 79.9484 96.3887 80.8859C96.8886 81.8234 97.6342 82.6071 98.5457 83.153C99.4572 83.6988 100.5 83.9863 101.562 83.9844C104.805 83.9844 107.422 81.3672 107.422 78.125C107.422 74.8828 104.805 72.2656 101.562 72.2656C99.5312 72.2656 97.7539 73.2812 96.6992 74.8437V74.8633Z" fill="#90B541"/>
<path d="M101.562 93.75C92.9297 93.75 85.9375 86.7578 85.9375 78.125C85.9375 73.7305 87.7539 69.7461 90.6836 66.9141C93.593 64.0765 97.4985 62.4919 101.562 62.5C110.195 62.5 117.188 69.4922 117.188 78.125C117.188 86.7578 110.195 93.75 101.562 93.75ZM87.7148 61.6992C83.0469 65.625 80.0781 71.5234 80.0781 78.125C80.0781 90 89.6875 99.6094 101.562 99.6094C113.438 99.6094 123.047 90 123.047 78.125C123.047 66.25 113.438 56.6406 101.562 56.6406C96.2891 56.6406 91.4453 58.5352 87.7148 61.6992Z" fill="#666666"/>
<path d="M80.0781 78.1255C80.0781 90.0005 89.6875 99.6099 101.563 99.6099C110.762 99.6099 118.594 93.8481 121.641 85.7427C119.708 88.8002 117.032 91.3177 113.862 93.0597C110.692 94.8018 107.133 95.7114 103.516 95.7036C91.6406 95.7036 82.0312 86.0942 82.0312 74.2192C82.0312 71.5435 82.5195 68.9653 83.4375 66.6021C81.3086 69.9224 80.0781 73.8872 80.0781 78.1255Z" fill="#545252"/>
<path d="M23.4375 93.75C14.8047 93.75 7.8125 86.7578 7.8125 78.125C7.8125 73.7305 9.62891 69.7461 12.5586 66.9141C15.468 64.0765 19.3735 62.4919 23.4375 62.5C32.0703 62.5 39.0625 69.4922 39.0625 78.125C39.0625 86.7578 32.0703 93.75 23.4375 93.75ZM9.58984 61.6992C4.92188 65.625 1.95312 71.5234 1.95312 78.125C1.95312 90 11.5625 99.6094 23.4375 99.6094C35.3125 99.6094 44.9219 90 44.9219 78.125C44.9219 66.25 35.3125 56.6406 23.4375 56.6406C18.1641 56.6406 13.3203 58.5352 9.58984 61.6992Z" fill="#666666"/>
<path d="M1.95313 78.1255C1.95313 90.0005 11.5625 99.6099 23.4375 99.6099C32.6367 99.6099 40.4688 93.8481 43.5156 85.7427C41.5833 88.8002 38.9071 91.3177 35.7372 93.0597C32.5674 94.8018 29.0076 95.7114 25.3906 95.7036C13.5156 95.7036 3.90625 86.0942 3.90625 74.2192C3.90625 71.5435 4.39454 68.9653 5.31251 66.6021C3.1836 69.9224 1.95313 73.8872 1.95313 78.1255Z" fill="#545252"/>
<path d="M68.3594 27.3438C67.2852 27.3438 66.4062 28.2227 66.4062 29.2969V31.25C66.4062 32.3242 67.2852 33.2031 68.3594 33.2031H76.1719C77.2461 33.2031 78.125 32.3242 78.125 31.25V29.2969C78.125 28.2227 77.2461 27.3438 76.1719 27.3438H68.3594Z" fill="#FFCA3A"/>
<path d="M66.4062 29.2969V31.25C66.4062 32.3242 67.2852 33.2031 68.3594 33.2031H72.2656C71.1914 33.2031 70.3125 32.3242 70.3125 31.25V29.2969C70.3125 28.2227 71.1914 27.3438 72.2656 27.3438H68.3594C67.2852 27.3438 66.4062 28.2227 66.4062 29.2969Z" fill="#FF9700"/>
<path d="M35.1563 35.1562C33.5547 35.1562 32.6367 36.9922 33.5938 38.2813L35.9375 41.4063C36.6797 42.3828 37.832 42.9688 39.0625 42.9688H43.3008C44.3359 42.9688 45.332 42.5586 46.0742 41.8164L49.3945 38.4961C50.625 37.2656 49.7656 35.1562 48.0274 35.1562H35.1563Z" fill="#FFCA3A"/>
<path d="M35.1563 35.1562H35.7578C37.418 39.8359 42.3047 40.2148 46.8672 41.0234L46.0742 41.8164C45.332 42.5586 44.3359 42.9688 43.3008 42.9688H39.0625C37.832 42.9688 36.6797 42.3828 35.9375 41.4063L33.5938 38.2813C32.6367 36.9922 33.5547 35.1562 35.1563 35.1562Z" fill="#FF9700"/>
<path d="M23.4375 72.2656C20.1953 72.2656 17.5781 74.8828 17.5781 78.125C17.5781 81.3672 20.1953 83.9844 23.4375 83.9844C26.6797 83.9844 29.2969 81.3672 29.2969 78.125C29.2969 75.3516 27.4023 73.0469 24.8242 72.4414L23.4375 72.2656Z" fill="#90B541"/>
<path d="M17.5781 78.1255C17.5781 81.3677 20.1953 83.9849 23.4375 83.9849C25.1953 83.9849 26.7578 83.2231 27.8125 81.9927C27.6563 82.0317 27.5 82.0317 27.3438 82.0317C24.1016 82.0317 21.4844 79.4145 21.4844 76.1724C21.4844 74.688 22.0508 73.3403 22.9688 72.3052C19.9414 72.52 17.5781 75.0395 17.5781 78.1255ZM95.7031 78.1255C95.7031 81.3677 98.3203 83.9849 101.563 83.9849C103.32 83.9849 104.883 83.2231 105.938 81.9927C105.781 82.0317 105.625 82.0317 105.469 82.0317C102.227 82.0317 99.6094 79.4145 99.6094 76.1724C99.6094 74.688 100.176 73.3403 101.094 72.3052C98.0664 72.52 95.7031 75.0395 95.7031 78.1255Z" fill="#76991F"/>
<path d="M44.1211 83.9841H54.6875C52.5391 83.9841 50.7812 82.2263 50.7812 80.0779C50.7812 77.9294 52.5391 76.1716 54.6875 76.1716L44.6875 74.9216L38.5547 74.1599L24.8242 72.4412C26.1024 72.7436 27.2404 73.4701 28.0526 74.5023C28.8649 75.5344 29.3035 76.8113 29.2969 78.1248C29.2969 81.3669 26.6797 83.9841 23.4375 83.9841H44.1211Z" fill="#FFCA3A"/>
<path d="M29.2969 78.1248C29.2969 75.3513 27.4023 73.0466 24.8242 72.4412L27.5684 72.7849C32.4316 78.8494 40.3477 82.074 48.8516 83.9841H23.4375C26.6797 83.9841 29.2969 81.3669 29.2969 78.1248Z" fill="#FF9700"/>
<path d="M102.793 75.6836C104.049 75.6836 104.053 77.6367 102.793 77.6367C101.537 77.6367 101.535 75.6836 102.793 75.6836ZM25.4121 76.0664C26.668 76.0664 26.6719 78.0195 25.4121 78.0195C24.1543 78.0195 24.1523 76.0664 25.4121 76.0664Z" fill="#BFE26A"/>
<path d="M44.3281 37.2798C45.584 37.2798 45.5859 39.2329 44.3281 39.2329C43.0703 39.2329 43.0684 37.2798 44.3281 37.2798Z" fill="#F9E4AF"/>
</svg>
