<svg width="32" height="32" viewBox="0 0 32 32" fill="none" xmlns="http://www.w3.org/2000/svg">
<path d="M6.0812 19.1792C6.17048 19.1792 6.25813 19.1554 6.33506 19.1101C6.412 19.0648 6.47541 18.9998 6.5187 18.9217C10.0392 12.5777 19.6652 12.4777 20.7337 12.4947H20.7387C20.8044 12.495 20.8694 12.4824 20.9302 12.4576C20.991 12.4328 21.0463 12.3962 21.093 12.35C21.1872 12.2567 21.2405 12.1298 21.2412 11.9972C21.2419 11.8646 21.1898 11.7371 21.0965 11.6429C21.0032 11.5487 20.8763 11.4954 20.7437 11.4947C19.5857 11.4802 9.4457 11.5872 5.6452 18.4367C5.60273 18.5127 5.58086 18.5984 5.58179 18.6855C5.58271 18.7725 5.60639 18.8578 5.65046 18.9329C5.69454 19.0079 5.75748 19.0702 5.83304 19.1134C5.90861 19.1566 5.99416 19.1793 6.0812 19.1792Z" fill="#B3B3B3"/>
<path d="M10.223 10.3273C10.3457 10.2772 10.4832 10.2776 10.6056 10.3286C10.728 10.3796 10.8252 10.4769 10.876 10.5993L14.0815 18.3843C16.5265 14.7143 21.1685 13.0833 21.218 13.0658L21.543 14.0118C21.492 14.0293 16.486 15.7858 14.4435 19.7303L14.438 19.7273C14.3863 19.833 14.2982 19.9164 14.19 19.9623C14.0674 20.0128 13.9298 20.0124 13.8074 19.9614C13.685 19.9104 13.588 19.8129 13.5375 19.6903L9.95097 10.9803C9.90053 10.8577 9.90084 10.72 9.95184 10.5976C10.0028 10.4751 10.1004 10.3779 10.223 10.3273Z" fill="#CCCCCC"/>
<path d="M24.7552 19.6625C24.8545 19.6627 24.9516 19.6334 25.0341 19.5781C25.1167 19.5229 25.1808 19.4444 25.2185 19.3525C25.2562 19.2606 25.2656 19.1596 25.2456 19.0624C25.2256 18.9651 25.1771 18.876 25.1062 18.8065C23.1447 16.8745 21.3337 12.225 20.7067 10.5H20.7502C21.7152 10.5 22.5002 9.715 22.5002 8.75C22.5002 7.785 21.7152 7 20.7502 7H19.6962C19.5636 7 19.4364 7.05268 19.3427 7.14645C19.2489 7.24021 19.1962 7.36739 19.1962 7.5C19.1962 7.63261 19.2489 7.75979 19.3427 7.85355C19.4364 7.94732 19.5636 8 19.6962 8H20.7502C21.1637 8 21.5002 8.3365 21.5002 8.75C21.5002 9.1635 21.1637 9.5 20.7502 9.5H20.0002C19.921 9.49998 19.8429 9.51879 19.7724 9.55487C19.7018 9.59096 19.6409 9.64329 19.5946 9.70755C19.5482 9.77181 19.5178 9.84616 19.5058 9.92448C19.4939 10.0028 19.5007 10.0828 19.5257 10.158C19.6182 10.435 21.8157 16.969 24.4037 19.5185C24.4974 19.6109 24.6237 19.6626 24.7552 19.6625Z" fill="#999999"/>
<path d="M21.5 19.75H25.3965L22.641 16.995L22.995 16.641L25.75 19.3965V15.5H26.25V19.3965L29.005 16.641L29.359 16.995L26.6035 19.75H30.5V20.25H26.6035L29.359 23.005L29.005 23.359L26.25 20.6035V24.5H25.75V20.6035L22.995 23.359L22.641 23.005L25.3965 20.25H21.5V19.75ZM1.5 19.75H5.3965L2.641 16.995L2.995 16.641L5.75 19.3965V15.5H6.25V19.3965L9.005 16.641L9.359 16.995L6.6035 19.75H10.5V20.25H6.6035L9.359 23.005L9.005 23.359L6.25 20.6035V24.5H5.75V20.6035L2.995 23.359L2.641 23.005L5.3965 20.25H1.5V19.75ZM13 23H13.5V21.109C13.5 20.9764 13.5527 20.8492 13.6464 20.7554C13.7402 20.6617 13.8674 20.609 14 20.609C14.1326 20.609 14.2598 20.6617 14.3536 20.7554C14.4473 20.8492 14.5 20.9764 14.5 21.109V23H15C15.1326 23 15.2598 23.0527 15.3536 23.1464C15.4473 23.2402 15.5 23.3674 15.5 23.5C15.5 23.6326 15.4473 23.7598 15.3536 23.8536C15.2598 23.9473 15.1326 24 15 24H13C12.8674 24 12.7402 23.9473 12.6464 23.8536C12.5527 23.7598 12.5 23.6326 12.5 23.5C12.5 23.3674 12.5527 23.2402 12.6464 23.1464C12.7402 23.0527 12.8674 23 13 23Z" fill="#808080"/>
<path d="M14 21.5C13.4477 21.5 13 21.0523 13 20.5C13 19.9477 13.4477 19.5 14 19.5C14.5523 19.5 15 19.9477 15 20.5C15 21.0523 14.5523 21.5 14 21.5Z" fill="#90B541"/>
<path d="M13.3095 19.7805C13.628 20.378 14.1775 20.7895 14.895 20.9355C14.8137 21.104 14.6866 21.2462 14.5284 21.346C14.3702 21.4458 14.1871 21.4992 14 21.5C13.45 21.5 13 21.05 13 20.5C13 20.2175 13.12 19.963 13.3095 19.7805Z" fill="#76991F"/>
<path d="M24.755 19.165C24.603 19.3906 24.5153 19.6532 24.5013 19.9249C24.4873 20.1965 24.5475 20.4668 24.6755 20.7068C24.8035 20.9468 24.9944 21.1474 25.2277 21.2872C25.461 21.4269 25.728 21.5005 26 21.5C26.83 21.5 27.5 20.83 27.5 20C27.5 19.17 26.83 18.5 26 18.5C25.48 18.5 25.025 18.76 24.755 19.16V19.165Z" fill="#90B541"/>
<path d="M26 24C23.79 24 22 22.21 22 20C22 18.875 22.465 17.855 23.215 17.13C23.9598 16.4036 24.9596 15.9979 26 16C28.21 16 30 17.79 30 20C30 22.21 28.21 24 26 24ZM22.455 15.795C21.26 16.8 20.5 18.31 20.5 20C20.5 23.04 22.96 25.5 26 25.5C29.04 25.5 31.5 23.04 31.5 20C31.5 16.96 29.04 14.5 26 14.5C24.65 14.5 23.41 14.985 22.455 15.795Z" fill="#666666"/>
<path d="M20.5001 20C20.5001 23.04 22.9601 25.5 26.0001 25.5C28.3551 25.5 30.3601 24.0251 31.1401 21.9501C30.6455 22.7328 29.9603 23.3773 29.1489 23.8232C28.3374 24.2692 27.4261 24.502 26.5001 24.5C23.4601 24.5 21.0001 22.04 21.0001 19C21.0001 18.315 21.1251 17.655 21.3601 17.05C20.8151 17.9 20.5001 18.915 20.5001 20Z" fill="#545252"/>
<path d="M6 24C3.79 24 2 22.21 2 20C2 18.875 2.465 17.855 3.215 17.13C3.95982 16.4036 4.95961 15.9979 6 16C8.21 16 10 17.79 10 20C10 22.21 8.21 24 6 24ZM2.455 15.795C1.26 16.8 0.5 18.31 0.5 20C0.5 23.04 2.96 25.5 6 25.5C9.04 25.5 11.5 23.04 11.5 20C11.5 16.96 9.04 14.5 6 14.5C4.65 14.5 3.41 14.985 2.455 15.795Z" fill="#666666"/>
<path d="M0.500137 20C0.500137 23.04 2.96014 25.5 6.00014 25.5C8.35514 25.5 10.3601 24.0251 11.1401 21.9501C10.6455 22.7328 9.96035 23.3773 9.14887 23.8232C8.3374 24.2692 7.42608 24.502 6.50014 24.5C3.46014 24.5 1.00014 22.04 1.00014 19C1.00014 18.315 1.12514 17.655 1.36014 17.05C0.815138 17.9 0.500137 18.915 0.500137 20Z" fill="#545252"/>
<path d="M17.5 7C17.225 7 17 7.225 17 7.5V8C17 8.275 17.225 8.5 17.5 8.5H19.5C19.775 8.5 20 8.275 20 8V7.5C20 7.225 19.775 7 19.5 7H17.5Z" fill="#FFCA3A"/>
<path d="M17 7.5V8C17 8.275 17.225 8.5 17.5 8.5H18.5C18.225 8.5 18 8.275 18 8V7.5C18 7.225 18.225 7 18.5 7H17.5C17.225 7 17 7.225 17 7.5Z" fill="#FF9700"/>
<path d="M9.00022 9C8.59022 9 8.35522 9.47 8.60022 9.8L9.20022 10.6C9.39022 10.85 9.68522 11 10.0002 11H11.0852C11.3502 11 11.6052 10.895 11.7952 10.705L12.6452 9.855C12.9602 9.54 12.7402 9 12.2952 9H9.00022Z" fill="#FFCA3A"/>
<path d="M9.00005 9H9.15405C9.57905 10.198 10.83 10.295 11.998 10.502L11.795 10.705C11.605 10.895 11.35 11 11.085 11H10C9.68505 11 9.39005 10.85 9.20005 10.6L8.60005 9.8C8.35505 9.47 8.59005 9 9.00005 9Z" fill="#FF9700"/>
<path d="M6 18.5C5.17 18.5 4.5 19.17 4.5 20C4.5 20.83 5.17 21.5 6 21.5C6.83 21.5 7.5 20.83 7.5 20C7.5 19.29 7.015 18.7 6.355 18.545L6 18.5Z" fill="#90B541"/>
<path d="M4.50012 20C4.50012 20.83 5.17012 21.5 6.00012 21.5C6.45012 21.5 6.85011 21.305 7.12012 20.99C7.08011 21 7.04012 21 7.00012 21C6.17012 21 5.50012 20.33 5.50012 19.5C5.50012 19.12 5.64511 18.775 5.88011 18.51C5.10511 18.565 4.50012 19.21 4.50012 20ZM24.5001 20C24.5001 20.83 25.1701 21.5 26.0001 21.5C26.4501 21.5 26.8501 21.305 27.1201 20.99C27.0801 21 27.0401 21 27.0001 21C26.1701 21 25.5001 20.33 25.5001 19.5C25.5001 19.12 25.6451 18.775 25.8801 18.51C25.1051 18.565 24.5001 19.21 24.5001 20Z" fill="#76991F"/>
<path d="M11.295 21.4999H14C13.45 21.4999 13 21.0499 13 20.4999C13 19.9499 13.45 19.4999 14 19.4999L11.44 19.1799L9.87 18.9849L6.355 18.5449C6.68221 18.6223 6.97353 18.8083 7.18147 19.0726C7.38941 19.3368 7.50169 19.6637 7.5 19.9999C7.5 20.8299 6.83 21.4999 6 21.4999H11.295Z" fill="#FFCA3A"/>
<path d="M7.49986 19.9999C7.49986 19.2899 7.01486 18.6999 6.35486 18.5449L7.05736 18.6329C8.30236 20.1854 10.3289 21.0109 12.5059 21.4999H5.99986C6.82986 21.4999 7.49986 20.8299 7.49986 19.9999Z" fill="#FF9700"/>
<path d="M26.3151 19.375C26.6366 19.375 26.6376 19.875 26.3151 19.875C25.9936 19.875 25.9931 19.375 26.3151 19.375ZM6.50564 19.473C6.82714 19.473 6.82814 19.973 6.50564 19.973C6.18364 19.973 6.18314 19.473 6.50564 19.473Z" fill="#BFE26A"/>
<path d="M11.348 9.5437C11.6695 9.5437 11.67 10.0437 11.348 10.0437C11.026 10.0437 11.0255 9.5437 11.348 9.5437Z" fill="#F9E4AF"/>
</svg>
