<svg width="19" height="17" viewBox="0 0 19 17" fill="none" xmlns="http://www.w3.org/2000/svg">
<path d="M3.19078 4.85744L3.72111 4.32711L3.19078 4.85744ZM1.58333 3.25L2.11366 2.71967V2.71967L1.58333 3.25ZM2.46756 14.9542L2.9084 14.3475H2.9084L2.46756 14.9542ZM1.54576 14.0324L0.939 14.4733V14.4733L1.54576 14.0324ZM16.6209 14.0324L16.0141 13.5916V13.5916L16.6209 14.0324ZM15.6991 14.9542L15.2583 14.3475V14.3475L15.6991 14.9542ZM2.46756 1.54576L2.02672 0.939L2.02672 0.939L2.46756 1.54576ZM1.54576 2.46756L0.939 2.02672L0.939 2.02672L1.54576 2.46756ZM13.769 7.10341C14.068 6.81678 14.0781 6.34201 13.7914 6.04299C13.5048 5.74396 13.03 5.73392 12.731 6.02055L13.25 6.56198L13.769 7.10341ZM18.1603 6.5527C18.1552 6.13852 17.8153 5.80691 17.4011 5.81204C16.9869 5.81716 16.6553 6.15707 16.6605 6.57125L17.4104 6.56198L18.1603 6.5527ZM11.5743 1.50595C11.9885 1.51092 12.3283 1.17918 12.3333 0.764995C12.3382 0.350811 12.0065 0.0110238 11.5923 0.00605893L11.5833 0.756005L11.5743 1.50595ZM1.26752 2.93419L0.591872 2.60862L1.26752 2.93419ZM3.19078 4.85744L3.72111 4.32711L2.11366 2.71967L1.58333 3.25L1.053 3.78033L2.66045 5.38777L3.19078 4.85744ZM3.19078 4.85744L2.66045 5.38777C4.03434 6.76167 5.11699 7.84657 6.07658 8.57871C7.05347 9.32406 7.99047 9.77411 9.08333 9.77411V9.02411V8.27411C8.45031 8.27411 7.82992 8.02972 6.98645 7.38618C6.12568 6.72943 5.12499 5.731 3.72111 4.32711L3.19078 4.85744ZM8.25 0.75V1.5H9.91667V0.75V0H8.25V0.75ZM9.91667 15.75V15H8.25V15.75V16.5H9.91667V15.75ZM8.25 15.75V15C6.67091 15 5.54683 14.999 4.6785 14.9049C3.82421 14.8123 3.30688 14.637 2.9084 14.3475L2.46756 14.9542L2.02672 15.561C2.72352 16.0673 3.53502 16.2898 4.51693 16.3962C5.48481 16.501 6.70432 16.5 8.25 16.5V15.75ZM0.75 8.25H0C0 9.79568 -0.00102943 11.0152 0.103834 11.9831C0.210218 12.965 0.432748 13.7765 0.939 14.4733L1.54576 14.0324L2.15253 13.5916C1.86301 13.1931 1.68766 12.6758 1.59511 11.8215C1.50103 10.9532 1.5 9.82909 1.5 8.25H0.75ZM2.46756 14.9542L2.9084 14.3475C2.61834 14.1367 2.36326 13.8817 2.15253 13.5916L1.54576 14.0324L0.939 14.4733C1.24226 14.8907 1.60932 15.2577 2.02672 15.561L2.46756 14.9542ZM17.4167 8.25H16.6667C16.6667 9.82909 16.6656 10.9532 16.5716 11.8215C16.479 12.6758 16.3037 13.1931 16.0141 13.5916L16.6209 14.0324L17.2277 14.4733C17.7339 13.7765 17.9564 12.965 18.0628 11.9831C18.1677 11.0152 18.1667 9.79568 18.1667 8.25H17.4167ZM9.91667 15.75V16.5C11.4623 16.5 12.6819 16.501 13.6497 16.3962C14.6317 16.2898 15.4431 16.0673 16.1399 15.561L15.6991 14.9542L15.2583 14.3475C14.8598 14.637 14.3425 14.8123 13.4882 14.9049C12.6198 14.999 11.4958 15 9.91667 15V15.75ZM16.6209 14.0324L16.0141 13.5916C15.8034 13.8817 15.5483 14.1367 15.2583 14.3475L15.6991 14.9542L16.1399 15.561C16.5573 15.2577 16.9244 14.8907 17.2277 14.4733L16.6209 14.0324ZM8.25 0.75V0C6.70432 0 5.48481 -0.00102943 4.51693 0.103834C3.53502 0.210218 2.72352 0.432748 2.02672 0.939L2.46756 1.54576L2.9084 2.15253C3.30688 1.86301 3.82421 1.68766 4.6785 1.59511C5.54683 1.50103 6.67091 1.5 8.25 1.5V0.75ZM2.46756 1.54576L2.02672 0.939C1.60932 1.24226 1.24226 1.60932 0.939 2.02672L1.54576 2.46756L2.15253 2.9084C2.36326 2.61834 2.61834 2.36326 2.9084 2.15253L2.46756 1.54576ZM13.25 6.56198L12.731 6.02055C10.9955 7.68413 10.0712 8.27411 9.08333 8.27411V9.02411V9.77411C10.7489 9.77411 12.0797 8.72267 13.769 7.10341L13.25 6.56198ZM17.4167 8.25H18.1667C18.1667 7.62961 18.1667 7.06485 18.1603 6.5527L17.4104 6.56198L16.6605 6.57125C16.6667 7.07229 16.6667 7.62713 16.6667 8.25H17.4167ZM9.91667 0.75V1.5C10.5308 1.5 11.0788 1.50001 11.5743 1.50595L11.5833 0.756005L11.5923 0.00605893C11.086 -1.06096e-05 10.5284 0 9.91667 0V0.75ZM17.4167 2.41667H16.6667C16.6667 2.92293 16.2563 3.33333 15.75 3.33333V4.08333V4.83333C17.0847 4.83333 18.1667 3.75135 18.1667 2.41667H17.4167ZM15.75 4.08333V3.33333C15.2437 3.33333 14.8333 2.92293 14.8333 2.41667H14.0833H13.3333C13.3333 3.75135 14.4153 4.83333 15.75 4.83333V4.08333ZM14.0833 2.41667H14.8333C14.8333 1.91041 15.2437 1.5 15.75 1.5V0.75V0C14.4153 0 13.3333 1.08198 13.3333 2.41667H14.0833ZM15.75 0.75V1.5C16.2563 1.5 16.6667 1.91041 16.6667 2.41667H17.4167H18.1667C18.1667 1.08198 17.0847 0 15.75 0V0.75ZM0.75 8.25H1.5C1.5 6.88555 1.50049 5.85775 1.56256 5.03612C1.6245 4.21627 1.74412 3.67285 1.94318 3.25976L1.26752 2.93419L0.591872 2.60862C0.273401 3.26955 0.134265 4.0304 0.0668217 4.92312C-0.000487328 5.81407 0 6.90716 0 8.25H0.75ZM1.26752 2.93419L1.94318 3.25976C2.00401 3.13351 2.07324 3.01753 2.15253 2.9084L1.54576 2.46756L0.939 2.02672C0.805653 2.21026 0.690651 2.40363 0.591872 2.60862L1.26752 2.93419ZM1.58333 3.25L2.11366 2.71967L1.79785 2.40386L1.26752 2.93419L0.737194 3.46452L1.053 3.78033L1.58333 3.25Z" fill="#0B3C5D"/>
</svg>
