<svg width="64" height="64" viewBox="0 0 64 64" fill="none" xmlns="http://www.w3.org/2000/svg">
<g clip-path="url(#clip0_2_3692)">
<path d="M55.23 44.09C55.34 43.69 55.7 43.4 56.13 43.4C56.18 43.4 56.23 43.4 56.27 43.41L56.28 43.42L56.69 44.05L55.59 44.71L55.23 44.09Z" fill="#687D87"/>
<path d="M55.23 44.09L54.53 42.87C54.8 42.58 55.14 42.37 55.52 42.26L56.27 43.41C56.23 43.4 56.18 43.4 56.13 43.4C55.7 43.4 55.34 43.69 55.23 44.09Z" fill="#687D87"/>
<path d="M56.1299 45.29C55.6099 45.29 55.1899 44.87 55.1899 44.35C55.1899 44.26 55.1999 44.17 55.2299 44.09L55.5899 44.71L56.6899 44.05L56.2799 43.42C56.7299 43.49 57.0799 43.88 57.0799 44.35C57.0799 44.87 56.6499 45.29 56.1299 45.29Z" fill="#E5E5E5"/>
<path d="M56.13 46.53C54.93 46.53 53.95 45.55 53.95 44.35C53.95 43.78 54.1699 43.25 54.5299 42.87L55.2299 44.09C55.1999 44.17 55.1899 44.26 55.1899 44.35C55.1899 44.87 55.61 45.29 56.13 45.29C56.65 45.29 57.08 44.87 57.08 44.35C57.08 43.88 56.7299 43.49 56.2799 43.42L56.27 43.41L55.52 42.26C55.72 42.2 55.92 42.17 56.13 42.17C57.34 42.17 58.31 43.14 58.31 44.35C58.31 45.55 57.34 46.53 56.13 46.53Z" fill="#BDBDBE"/>
<path d="M55.19 41.7501L54.22 42.3301L54.12 42.1401L55.07 41.5601L55.19 41.7501Z" fill="#445B69"/>
<path d="M54.82 41.18C54.48 41.32 54.17 41.52 53.89 41.75L53.86 41.69L54.78 41.13L54.82 41.18Z" fill="#445B69"/>
<path d="M54.22 42.33L55.19 41.75L55.52 42.26C55.14 42.37 54.8 42.58 54.53 42.87L54.22 42.33Z" fill="#687D87"/>
<path d="M53.89 41.7501C54.17 41.5201 54.48 41.3201 54.82 41.1801L54.9 41.3001L53.97 41.8801L53.89 41.7501Z" fill="#445B69"/>
<path d="M54.78 41.13L53.86 41.69L53.71 41.43L54.62 40.88L54.78 41.13Z" fill="#687D87"/>
<path d="M55.07 41.5601L54.12 42.14L53.97 41.8801L54.9 41.3L55.07 41.5601Z" fill="#687D87"/>
<path d="M54.0501 40.01C54.0101 40.02 53.9701 40.04 53.9301 40.07L54.0501 40.01Z" fill="#687D87"/>
<path d="M53.61 41.2399L54.51 40.6899L54.62 40.8799L53.71 41.4299L53.61 41.2399Z" fill="#445B69"/>
<path d="M54.33 40.43L53.45 40.98L53.35 40.79L54.22 40.26L54.33 40.43Z" fill="#445B69"/>
<path d="M53.61 41.2401L53.45 40.9801L54.33 40.4301L54.5099 40.6901L53.61 41.2401Z" fill="#687D87"/>
<path d="M53.93 40.0699L53.39 40.3899C53.56 40.2699 53.74 40.1599 53.93 40.0699Z" fill="#445B69"/>
<path d="M53.35 40.79L53.2 40.53C53.24 40.5 53.28 40.47 53.32 40.44L53.39 40.39L53.93 40.07C53.97 40.04 54.01 40.02 54.05 40.01L54.22 40.26L53.35 40.79ZM53.03 40.24C53.29 40.03 53.57 39.86 53.87 39.72L53.94 39.83L53.09 40.33L53.03 40.24Z" fill="#687D87"/>
<path d="M52.71 44.35C52.71 43.31 53.17 42.38 53.89 41.75L53.97 41.88L54.12 42.14L54.22 42.33L54.53 42.87C54.17 43.25 53.95 43.78 53.95 44.35C53.95 45.55 54.93 46.53 56.13 46.53C57.34 46.53 58.31 45.55 58.31 44.35C58.31 43.14 57.34 42.17 56.13 42.17C55.92 42.17 55.72 42.2 55.52 42.26L55.19 41.75L55.07 41.56L54.9 41.3L54.82 41.18C55.22 41.01 55.67 40.92 56.13 40.92C58.03 40.92 59.56 42.45 59.56 44.35C59.56 46.24 58.03 47.78 56.13 47.78C54.24 47.78 52.71 46.24 52.71 44.35Z" fill="#DEDEDF"/>
<path d="M53.1899 40.5199L53.3199 40.4399C53.2799 40.4699 53.2399 40.4999 53.1899 40.5199Z" fill="#687D87"/>
<path d="M53.32 40.44L53.19 40.52L53.09 40.33L53.94 39.83L54.04 40L53.93 40.07C53.74 40.16 53.56 40.27 53.39 40.39L53.32 40.44Z" fill="#445B69"/>
<path d="M52.94 40.09L52.83 39.9L53.65 39.39L53.77 39.58L52.94 40.09Z" fill="#445B69"/>
<path d="M53.8699 39.72C53.5699 39.86 53.2899 40.03 53.0299 40.24L52.9399 40.09L53.7699 39.58L53.8699 39.72Z" fill="#687D87"/>
<path d="M53.6501 39.39L52.8301 39.9L52.6801 39.62L53.4801 39.13L53.6501 39.39Z" fill="#687D87"/>
<path d="M53.4799 39.1299L52.6799 39.6199L52.5699 39.4399L53.3599 38.9399L53.4799 39.1299Z" fill="#445B69"/>
<path d="M52.42 39.1699L53.2 38.7L53.36 38.9399L52.57 39.4399L52.42 39.1699Z" fill="#687D87"/>
<path d="M53.1999 38.7L52.4199 39.17L52.3199 38.99L53.0899 38.52L53.1999 38.7Z" fill="#445B69"/>
<path d="M52.37 37.41L52.38 37.43C52.36 37.44 52.35 37.45 52.33 37.46C52.34 37.44 52.36 37.42 52.37 37.41Z" fill="#687D87"/>
<path d="M52.32 38.9901L51.8 38.0801C51.99 37.8401 52.1701 37.6301 52.3301 37.4601C52.3501 37.4501 52.3601 37.4401 52.3801 37.4301L53.09 38.5201L52.32 38.9901Z" fill="#687D87"/>
<path d="M52.3299 37.46C52.1999 37.53 52.0699 37.61 51.9399 37.69L52.2699 37.26L52.3699 37.41C52.3599 37.42 52.3399 37.44 52.3299 37.46Z" fill="#41ACD8"/>
<path d="M52.33 37.46C52.17 37.63 51.99 37.84 51.8 38.08L51.73 37.96L51.94 37.69C52.07 37.61 52.2 37.53 52.33 37.46Z" fill="#41ACD8"/>
<path d="M51.3199 44.35C51.3199 42.8 52.0599 41.41 53.1999 40.53L53.3499 40.79L53.4499 40.98L53.6099 41.24L53.7099 41.43L53.8599 41.69L53.8899 41.75C53.1699 42.38 52.7099 43.31 52.7099 44.35C52.7099 46.24 54.2399 47.78 56.1299 47.78C58.0299 47.78 59.5599 46.24 59.5599 44.35C59.5599 42.45 58.0299 40.92 56.1299 40.92C55.6699 40.92 55.2199 41.01 54.8199 41.18L54.7799 41.13L54.6199 40.88L54.5099 40.69L54.3299 40.43L54.2199 40.26L54.0499 40.01C54.6799 39.7 55.3899 39.53 56.1299 39.53C58.7899 39.53 60.9499 41.69 60.9499 44.35C60.9499 47.01 58.7899 49.16 56.1299 49.16C53.4799 49.16 51.3199 47.01 51.3199 44.35Z" fill="#C6C1C1"/>
<path d="M53.2 40.5299C52.06 41.4099 51.32 42.7999 51.32 44.3499C51.32 47.0099 53.48 49.1599 56.13 49.1599C58.79 49.1599 60.95 47.0099 60.95 44.3499C60.95 41.6899 58.79 39.5299 56.13 39.5299C55.39 39.5299 54.68 39.6999 54.05 40.0099L54.04 39.9999L53.94 39.8299L53.87 39.7199C54.55 39.3799 55.32 39.1899 56.13 39.1899C58.98 39.1899 61.29 41.4999 61.29 44.3499C61.29 47.1999 58.98 49.4999 56.13 49.4999C53.29 49.4999 50.98 47.1999 50.98 44.3499C50.98 42.6699 51.79 41.1699 53.03 40.2399L53.09 40.3299L53.2 40.5299Z" fill="#EFF3F5"/>
<path d="M48.77 41.5599C49.38 39.9499 50.5 38.5899 51.94 37.6899L51.73 37.9599L51.8 38.0799C50.95 39.1299 49.89 40.6699 49.08 41.5699C48.98 41.5699 48.87 41.5599 48.77 41.5599Z" fill="#41ACD8"/>
<path d="M49.08 41.57C49.89 40.67 50.95 39.13 51.8 38.08L52.32 38.99L52.42 39.17L52.57 39.44L52.68 39.62L52.83 39.9L52.94 40.09L53.03 40.24C51.79 41.17 50.98 42.67 50.98 44.35C50.98 47.2 53.29 49.5 56.13 49.5C58.98 49.5 61.29 47.2 61.29 44.35C61.29 41.5 58.98 39.19 56.13 39.19C55.32 39.19 54.55 39.38 53.87 39.72L53.77 39.58L53.65 39.39L53.48 39.13L53.36 38.94L53.2 38.7L53.09 38.52L52.38 37.43C53.5 36.82 54.77 36.48 56.13 36.48C60.48 36.48 64 40 64 44.35C64 48.69 60.48 52.22 56.13 52.22C51.79 52.22 48.26 48.69 48.26 44.35C48.26 43.37 48.44 42.43 48.77 41.56C48.87 41.56 48.98 41.57 49.08 41.57Z" fill="#2E435A"/>
<path d="M48.77 41.56C47.57 41.52 46.44 41.55 45.76 41.91C44.82 42.23 44.36 42.09 44.51 41.67C45.86 38.92 46.31 36.4 47.37 34.74C50.52 29.64 57.1 29.49 62.88 34.83C63.28 35.23 62.42 36.1 60.8 36.17C57.04 35.99 53.73 36.06 52.46 37.32C52.43 37.35 52.4 37.38 52.37 37.41L52.27 37.26L51.94 37.69C50.5 38.59 49.38 39.95 48.77 41.56Z" fill="#41ACD8"/>
<path d="M46.02 17.05V12.67C46.02 12.65 46.02 12.63 46.01 12.62C46.67 12.79 47.18 13.72 47.18 14.83C47.18 15.95 46.68 16.87 46.02 17.05Z" fill="#445B69"/>
<path d="M45.78 17.09C45 17.09 44.37 16.08 44.37 14.83C44.37 13.59 45 12.58 45.78 12.58C45.86 12.58 45.94 12.59 46.01 12.62C46.02 12.63 46.02 12.65 46.02 12.67V17.05C45.94 17.08 45.86 17.09 45.78 17.09ZM42.17 16.79C42.05 16.88 41.91 16.91 41.77 16.91C41.54 16.91 41.31 16.8 41.17 16.59L39.97 14.78C40.45 14.57 40.88 14.34 41.26 14.1L42.38 15.79C42.6 16.12 42.5 16.57 42.17 16.79Z" fill="#59CBEF"/>
<path d="M34.1 12.5C34.1 12.1 34.42 11.78 34.82 11.78H39.33C39.57 11.78 39.8 11.9 39.93 12.1L41.26 14.1C40.88 14.34 40.45 14.57 39.97 14.78L38.94 13.23H34.82C34.42 13.23 34.1 12.9 34.1 12.5ZM21.17 41C21.17 41.06 21.17 41.12 21.16 41.18C21.16 41.19 21.16 41.2 21.15 41.21C21.16 41.14 21.17 41.07 21.17 41ZM21.11 41.43C21.13 41.36 21.14 41.29 21.15 41.21C21.15 41.28 21.13 41.35 21.11 41.43Z" fill="#445B69"/>
<path d="M22.27 41.16L23.13 40.85C23.74 39.63 24.2 38.29 24.28 36.9C24.31 36.52 24.31 36.13 24.28 35.75L25.09 35.68C25.39 37.62 26.72 39.22 28.95 39.74H38.37C42.8 39.68 44.26 32.92 40.39 35.18C39.94 35.43 40.2 34.16 40.66 32.42L40.33 32.33C41.05 30.43 41.49 28.42 42.12 25.54L43.51 24.82C42.51 22.08 40.9 19.41 39.12 16.76V15.13C39.42 15.02 39.7 14.9 39.97 14.78L41.17 16.59C41.31 16.8 41.54 16.91 41.77 16.91C41.91 16.91 42.05 16.88 42.17 16.79C42.5 16.57 42.6 16.12 42.38 15.79L41.26 14.1C42.27 13.45 42.89 12.7 43 11.82C43.31 11.7 43.63 11.84 43.95 12.2H45.54C45.78 12.2 45.99 12.38 46.01 12.62C45.94 12.59 45.86 12.58 45.78 12.58C45 12.58 44.37 13.59 44.37 14.83C44.37 16.08 45 17.09 45.78 17.09C45.86 17.09 45.94 17.08 46.02 17.05V17.19C46.02 17.45 45.8 17.66 45.54 17.66H43.33C42.86 17.67 42.73 18.44 43.34 18.65C44.59 18.95 45.15 20.2 46.31 23.26C47.05 25.13 48.95 27.69 50.16 28.15C50.99 28.42 51.26 28.7 51.45 29.12C51.79 30.23 51.57 30.98 50.36 31.36C47.87 32.26 46.13 34.39 45.09 37.35C43.93 40.89 41.83 42.76 38.27 43H21V42.72H20.25C20.59 42.4 20.84 42.07 20.99 41.73H21C21.05 41.63 21.08 41.53 21.11 41.43C21.13 41.35 21.15 41.28 21.15 41.21C21.16 41.2 21.16 41.19 21.16 41.18L22.27 41.16Z" fill="#59CBEF"/>
<path d="M20.99 41.73C20.49 41.72 19.99 41.74 19.51 41.78C19.34 41.29 19.12 40.82 18.86 40.38H21.05C21.13 40.59 21.17 40.79 21.17 41C21.17 41.07 21.16 41.14 21.15 41.21C21.14 41.29 21.13 41.36 21.11 41.43C21.08 41.53 21.05 41.63 21 41.73H20.99Z" fill="#445B69"/>
<path d="M16.82 42.38C16.51 41.6 16 40.91 15.36 40.38H18.86C19.12 40.82 19.34 41.29 19.51 41.78C18.54 41.87 17.62 42.06 16.82 42.38Z" fill="#445B69"/>
<path d="M16.51 42.51C16.16 41.65 15.56 40.91 14.8 40.38H15.36C16 40.91 16.51 41.6 16.82 42.38C16.71 42.41 16.61 42.46 16.51 42.51Z" fill="#445B69"/>
<path d="M11.12 44.35C11.12 44.33 11.12 44.3 11.13 44.28C11.22 44.28 11.31 44.29 11.4 44.29C12.01 44.39 12.54 44.41 13.01 44.33C13.01 44.34 13.01 44.34 13.01 44.35C13.01 44.87 12.59 45.29 12.07 45.29C11.55 45.29 11.12 44.87 11.12 44.35Z" fill="#E5E5E5"/>
<path d="M9.35003 40.3799C9.34003 40.3799 9.34003 40.3799 9.34003 40.3799H8.78003C9.67003 39.6399 10.82 39.1899 12.07 39.1899C13.32 39.1899 14.47 39.6399 15.36 40.3799H14.8C14.03 39.8399 13.09 39.5299 12.07 39.5299C11.06 39.5299 10.12 39.8399 9.35003 40.3799Z" fill="#59CBEF"/>
<path d="M11.13 44.28C11.16 43.79 11.57 43.4 12.07 43.4C12.58 43.4 13 43.82 13.01 44.33C12.54 44.41 12.01 44.39 11.4 44.29C11.31 44.29 11.22 44.28 11.13 44.28Z" fill="#445B69"/>
<path d="M12.07 46.53C10.86 46.53 9.89001 45.55 9.89001 44.35C9.89001 44.25 9.90001 44.15 9.91001 44.05C10.28 44.17 10.69 44.25 11.13 44.28C11.12 44.3 11.12 44.33 11.12 44.35C11.12 44.87 11.55 45.29 12.07 45.29C12.59 45.29 13.01 44.87 13.01 44.35C13.01 44.34 13.01 44.34 13.01 44.33C13.46 44.27 13.86 44.12 14.2 43.91C14.23 44.05 14.25 44.2 14.25 44.35C14.25 45.55 13.27 46.53 12.07 46.53Z" fill="#BDBDBE"/>
<path d="M9.91003 44.05C10.06 42.98 10.96 42.17 12.07 42.17C13.12 42.17 14 42.91 14.2 43.9V43.91C13.86 44.12 13.46 44.27 13.01 44.33C13 43.82 12.58 43.4 12.07 43.4C11.57 43.4 11.16 43.79 11.13 44.28C10.69 44.25 10.28 44.17 9.91003 44.05Z" fill="#445B69"/>
<path d="M14.8 40.38H9.34998C10.12 39.84 11.06 39.53 12.07 39.53C13.09 39.53 14.03 39.84 14.8 40.38Z" fill="#59CBEF"/>
<path d="M12.07 42.17C10.96 42.17 10.06 42.98 9.91003 44.05C9.48003 43.9 9.10003 43.68 8.78003 43.38C9.20003 41.95 10.51 40.92 12.07 40.92C13.44 40.92 14.63 41.72 15.17 42.89C14.91 43.31 14.59 43.66 14.2 43.9C14 42.91 13.12 42.17 12.07 42.17Z" fill="#445B69"/>
<path d="M12.07 47.78C10.17 47.78 8.64001 46.24 8.64001 44.35C8.64001 44.01 8.69001 43.69 8.78001 43.38C9.10001 43.68 9.48001 43.9 9.91001 44.05C9.90001 44.15 9.89001 44.25 9.89001 44.35C9.89001 45.55 10.86 46.53 12.07 46.53C13.27 46.53 14.25 45.55 14.25 44.35C14.25 44.2 14.23 44.05 14.2 43.91V43.9C14.59 43.66 14.91 43.31 15.17 42.89C15.38 43.33 15.5 43.83 15.5 44.35C15.5 46.24 13.96 47.78 12.07 47.78Z" fill="#DEDEDF"/>
<path d="M7.70996 41.59C7.59996 41.23 7.50996 40.83 7.45996 40.38H8.77996C8.35996 40.72 7.99996 41.13 7.70996 41.59ZM7.84996 42.01C8.21996 41.36 8.72996 40.8 9.33996 40.38C9.33996 40.38 9.33996 40.38 9.34996 40.38H14.8C15.56 40.91 16.16 41.65 16.51 42.51C16.31 42.6 16.11 42.7 15.93 42.81L15.55 42.12C15.44 42.4 15.32 42.66 15.17 42.89C14.63 41.72 13.44 40.92 12.07 40.92C10.51 40.92 9.19996 41.95 8.77996 43.38C8.38996 43.04 8.07996 42.58 7.84996 42.01Z" fill="#445B69"/>
<path d="M9.33996 40.38C8.72996 40.8 8.21996 41.36 7.84996 42.01C7.79996 41.88 7.74996 41.74 7.70996 41.59C7.99996 41.13 8.35996 40.72 8.77996 40.38H9.33996Z" fill="#445B69"/>
<path d="M7.25 44.35C7.25 43.5 7.47 42.71 7.85 42.01C8.08 42.58 8.39 43.04 8.78 43.38C8.69 43.69 8.64 44.01 8.64 44.35C8.64 46.24 10.17 47.78 12.07 47.78C13.96 47.78 15.5 46.24 15.5 44.35C15.5 43.83 15.38 43.33 15.17 42.89C15.32 42.66 15.44 42.4 15.55 42.12L15.93 42.81C16.11 42.7 16.31 42.6 16.51 42.51C16.75 43.08 16.88 43.7 16.88 44.35C16.88 47.01 14.73 49.16 12.07 49.16C9.41 49.16 7.25 47.01 7.25 44.35Z" fill="#C6C1C1"/>
<path d="M7.83996 27.39C7.82996 26.34 7.60996 25.55 7.25996 25.03C6.25996 23.6 6.68996 22.74 7.78996 22.72H15.93C16.64 22.7 17.3 22.78 17.89 22.99C20.57 24.32 25.25 23.77 27.05 23.16C28.25 22.75 29.21 22.58 30.28 23.05C32.7 24.24 33.62 26.81 30.83 27.31L9.53996 27.51C8.42996 28.16 7.79996 28.2 7.83996 27.39Z" fill="#445B69"/>
<path d="M7.39003 40.38C6.58003 40.35 5.83003 40.41 5.16003 40.58C5.58003 39.8 6.13003 39.11 6.77003 38.52C8.17003 37.25 10.03 36.48 12.07 36.48C14.96 36.48 17.5 38.04 18.86 40.38H15.36C14.47 39.64 13.32 39.19 12.07 39.19C10.82 39.19 9.67003 39.64 8.78003 40.38H7.46003H7.39003Z" fill="#59CBEF"/>
<path d="M12.07 49.5C9.22003 49.5 6.91003 47.2 6.91003 44.35C6.91003 43.34 7.20003 42.39 7.71003 41.59C7.75003 41.74 7.80003 41.88 7.85003 42.01C7.47003 42.71 7.25003 43.5 7.25003 44.35C7.25003 47.01 9.41003 49.16 12.07 49.16C14.73 49.16 16.88 47.01 16.88 44.35C16.88 43.7 16.75 43.08 16.51 42.51C16.61 42.46 16.71 42.41 16.82 42.38C17.08 42.99 17.22 43.65 17.22 44.35C17.22 47.2 14.92 49.5 12.07 49.5Z" fill="#EFF3F5"/>
<path d="M12.07 52.22C7.71995 52.22 4.19995 48.69 4.19995 44.35C4.19995 42.98 4.54995 41.7 5.15995 40.58C5.82995 40.41 6.57995 40.35 7.38995 40.38H7.45995C7.50995 40.83 7.59995 41.23 7.70995 41.59C7.19995 42.39 6.90995 43.34 6.90995 44.35C6.90995 47.2 9.21995 49.5 12.07 49.5C14.92 49.5 17.22 47.2 17.22 44.35C17.22 43.65 17.08 42.99 16.82 42.38C17.62 42.06 18.54 41.87 19.51 41.78C19.79 42.59 19.94 43.45 19.94 44.35C19.94 48.69 16.41 52.22 12.07 52.22Z" fill="#2E435A"/>
<path d="M6.13994 35.54H5.43994V37.91H6.13994V35.54Z" fill="#E5E5E5"/>
<path d="M4.15002 35.54C5.61002 33.93 7.25002 32.49 9.12002 31.42C11.36 30.1 13.96 29.27 16.54 29.46C19.09 29.62 21.64 30.92 22.82 33.19C24.01 35.45 23.48 38.92 22.27 41.16L21.16 41.18C21.17 41.12 21.17 41.06 21.17 41C21.17 40.79 21.13 40.59 21.05 40.38H18.86C17.5 38.04 14.96 36.48 12.07 36.48C10.03 36.48 8.17002 37.25 6.77002 38.52L6.14002 37.91V35.54H5.44002H4.15002Z" fill="#59CBEF"/>
<path d="M9.12003 31.42C7.25003 32.49 5.61003 33.93 4.15003 35.54H3.53003C5.06003 33.77 6.81003 32.16 8.85003 30.95C11.14 29.58 13.83 28.67 16.58 28.84C17.94 28.92 19.31 29.28 20.52 29.94C21.74 30.6 22.77 31.63 23.45 32.85C23.93 33.75 24.2 34.74 24.28 35.75C24.31 36.13 24.31 36.52 24.28 36.9C24.2 38.29 23.74 39.63 23.13 40.85L22.27 41.16C23.48 38.92 24.01 35.45 22.82 33.19C21.64 30.92 19.09 29.62 16.54 29.46C13.96 29.27 11.36 30.1 9.12003 31.42Z" fill="#41ACD8"/>
<path d="M8.10995 28.78L4.03995 32.95C3.82995 32.94 3.63995 32.92 3.44995 32.89C4.68995 31.4 6.15995 30.05 7.78995 28.78H7.79995H8.10995Z" fill="#59CBEF"/>
<path d="M2.88 36.3C3.09 36.04 3.31 35.79 3.53 35.54H4.15C3.83 35.88 3.53 36.23 3.23 36.59L2.88 36.3Z" fill="#F0582F"/>
<path d="M2.31006 32.4V31.35C2.31006 31.02 2.44006 30.71 2.66006 30.48L3.91006 29.17C4.15006 28.92 4.48006 28.78 4.82006 28.78H7.79006C6.16006 30.05 4.69006 31.4 3.45006 32.89C2.99006 32.82 2.59006 32.67 2.31006 32.4Z" fill="#D1395D"/>
<path d="M1.87 37.91L3.19 35.54H3.53C3.31 35.79 3.09 36.04 2.88 36.3L3.23 36.59C3.53 36.23 3.83 35.88 4.15 35.54H5.44V37.91H1.87Z" fill="#F0582F"/>
<path d="M3.19 35.5401L1.87 37.9101H5.44H6.14L6.77 38.5201C6.13 39.1101 5.58 39.8001 5.16 40.5801C4.83 40.6801 4.51 40.8001 4.23 40.9601C3.71 42.3001 2.4 41.5901 2.06 40.4201C1.73 39.2901 1.34 39.2201 0 39.5401C0.61 37.0201 1.83 34.8401 3.45 32.8901C3.64 32.9201 3.83 32.9401 4.04 32.9501L8.11 28.7801H7.8C8.36 28.3501 8.95 27.9201 9.54 27.5101L30.83 27.3101C26.44 29.2701 24.66 32.8401 25.09 35.6801L24.28 35.7501C24.2 34.7401 23.93 33.7501 23.45 32.8501C22.77 31.6301 21.74 30.6001 20.52 29.9401C19.31 29.2801 17.94 28.9201 16.58 28.8401C13.83 28.6701 11.14 29.5801 8.85 30.9501C6.81 32.1601 5.06 33.7701 3.53 35.5401H3.19Z" fill="#59CBEF"/>
<path d="M20.22 32.78H10.16V34.41H20.22V32.78Z" fill="#41ACD8"/>
<path d="M20.22 36.13H10.16V37.76H20.22V36.13Z" fill="#41ACD8"/>
</g>
<defs>
<clipPath id="clip0_2_3692">
<rect width="64" height="64" fill="white"/>
</clipPath>
</defs>
</svg>
