<svg width="24" height="24" viewBox="0 0 24 24" fill="none" xmlns="http://www.w3.org/2000/svg">
<path d="M8.18086 2.12983C8.93041 1.69932 9.74603 1.39583 10.5947 1.23165C10.6416 1.22258 10.6862 1.20437 10.7261 1.17804C10.7659 1.15172 10.8002 1.1178 10.827 1.07822C10.8537 1.03864 10.8724 0.994186 10.882 0.947385C10.8915 0.900585 10.8918 0.85236 10.8827 0.805466C10.8738 0.758519 10.8558 0.713787 10.8296 0.673845C10.8034 0.633903 10.7695 0.599541 10.73 0.572738C10.6904 0.545935 10.646 0.52722 10.5992 0.517672C10.5523 0.508123 10.5041 0.50793 10.4572 0.517102C9.5299 0.69675 8.63863 1.02837 7.81941 1.49856C7.73971 1.54848 7.68242 1.62731 7.65955 1.71854C7.63669 1.80976 7.65002 1.90629 7.69675 1.98791C7.74348 2.06952 7.81998 2.12988 7.91023 2.15634C8.00048 2.18279 8.09746 2.17329 8.18086 2.12983ZM11.9754 1.09092C12.0427 1.10074 13.947 0.974556 15.963 2.12983C16.0045 2.15356 16.0502 2.1689 16.0976 2.17496C16.145 2.18103 16.1931 2.1777 16.2392 2.16517C16.2853 2.15265 16.3284 2.13116 16.3662 2.10195C16.404 2.07274 16.4357 2.03637 16.4594 1.99492C16.4831 1.95347 16.4985 1.90775 16.5045 1.86037C16.5106 1.813 16.5073 1.76489 16.4948 1.7188C16.4822 1.67271 16.4607 1.62953 16.4315 1.59174C16.4023 1.55396 16.3659 1.52229 16.3245 1.49856C14.1689 0.264738 12.394 0.419284 11.9663 0.363647C11.9186 0.363934 11.8713 0.373623 11.8273 0.392163C11.7833 0.410702 11.7434 0.437727 11.7098 0.471697C11.642 0.540301 11.6043 0.633023 11.6049 0.729466C11.6054 0.825908 11.6443 0.91817 11.7129 0.985956C11.7815 1.05374 11.8742 1.0915 11.9707 1.09092H11.9754ZM20.0387 17.3476C19.9518 17.306 19.8519 17.3004 19.761 17.3321C19.67 17.3639 19.5953 17.4304 19.5532 17.5171C19.0995 18.4581 18.5812 19.3666 18.002 20.236C17.9486 20.3163 17.9293 20.4146 17.9484 20.5091C17.9674 20.6037 18.0233 20.6868 18.1036 20.7402C18.1839 20.7936 18.2822 20.8129 18.3767 20.7938C18.4713 20.7747 18.5544 20.7189 18.6078 20.6386C19.2052 19.7415 19.7398 18.8041 20.2078 17.8331C20.2497 17.7464 20.2554 17.6465 20.2237 17.5555C20.192 17.4646 20.1254 17.3896 20.0387 17.3476ZM19.51 6.33019C19.5666 6.40831 19.6519 6.46074 19.7472 6.47595C19.8424 6.49116 19.9398 6.4679 20.018 6.41128C20.0961 6.35467 20.1485 6.26935 20.1637 6.17408C20.1789 6.07881 20.1557 5.9814 20.099 5.90328C18.2954 3.41819 15.3525 1.80801 12.0776 1.80801C8.88559 1.80801 5.87032 3.37274 4.01141 5.99347C3.95562 6.07207 3.93333 6.16961 3.94946 6.26464C3.96559 6.35967 4.01881 6.4444 4.09741 6.50019C4.17601 6.55598 4.27355 6.57827 4.36858 6.56214C4.46361 6.54601 4.54834 6.49279 4.60413 6.41419C6.32814 3.98547 9.12195 2.53528 12.0787 2.53528C15.1012 2.53528 17.8332 4.01892 19.51 6.33019Z" fill="black"/>
<path d="M3.6501 10.6822C3.73363 10.7302 3.83283 10.7432 3.9259 10.7182C4.01897 10.6931 4.09831 10.6322 4.14647 10.5487C4.38828 10.1298 4.60101 9.66034 4.88101 8.9287C5.18208 8.14284 5.61156 7.41242 6.15192 6.76725C6.20954 6.69278 6.23607 6.59887 6.22591 6.50525C6.21576 6.41164 6.16972 6.3256 6.09747 6.26521C6.02522 6.20482 5.93238 6.17478 5.83845 6.1814C5.74452 6.18802 5.65681 6.23078 5.59374 6.3007C5.00188 7.00756 4.53148 7.80777 4.20174 8.6687C3.93628 9.36252 3.73774 9.80216 3.51628 10.1858C3.49245 10.2272 3.477 10.2728 3.47082 10.3202C3.46465 10.3675 3.46787 10.4156 3.4803 10.4617C3.49273 10.5078 3.51412 10.551 3.54326 10.5888C3.57239 10.6267 3.6087 10.6584 3.6501 10.6822ZM6.66756 5.22798C6.62957 5.25812 6.598 5.29555 6.5747 5.33807C6.55139 5.38059 6.53683 5.42734 6.53186 5.47557C6.52689 5.5238 6.53162 5.57254 6.54576 5.61892C6.55991 5.6653 6.58319 5.70838 6.61423 5.74563C6.64527 5.78288 6.68345 5.81355 6.72651 5.83582C6.76958 5.8581 6.81667 5.87154 6.86501 5.87535C6.91334 5.87916 6.96196 5.87326 7.00798 5.85801C7.05401 5.84275 7.09652 5.81845 7.13301 5.78652C8.20498 4.88943 9.49923 4.29834 10.8792 4.07561C10.9744 4.06034 11.0596 4.0079 11.1161 3.92983C11.1726 3.85175 11.1958 3.75443 11.1806 3.65925C11.1735 3.61189 11.157 3.56643 11.1321 3.52552C11.1072 3.48461 11.0744 3.44907 11.0356 3.42097C10.9968 3.39288 10.9528 3.37279 10.9061 3.36188C10.8595 3.35097 10.8111 3.34946 10.7639 3.35743C9.2621 3.5978 7.84574 4.2447 6.66756 5.22798ZM12.2796 3.25525C12.0788 3.25161 11.9123 3.40943 11.9076 3.61016C11.9028 3.81089 12.0617 3.97743 12.2625 3.98252C13.6596 4.01559 15.0215 4.42787 16.2025 5.17525C16.2428 5.20077 16.2878 5.2181 16.3349 5.22624C16.3819 5.23438 16.4301 5.23317 16.4767 5.22269C16.5233 5.2122 16.5673 5.19265 16.6063 5.16513C16.6454 5.13762 16.6786 5.10269 16.7041 5.06234C16.7296 5.02199 16.747 4.97701 16.7551 4.92996C16.7632 4.88291 16.762 4.83472 16.7515 4.78814C16.7411 4.74156 16.7215 4.6975 16.694 4.65847C16.6665 4.61945 16.6315 4.58623 16.5912 4.5607C15.2989 3.74274 13.8085 3.2915 12.2796 3.25525ZM19.9406 9.7527C20.133 9.69561 20.2425 9.49307 20.1857 9.3007C19.7528 7.83368 18.9264 6.51321 17.7963 5.48252C17.7252 5.41733 17.6311 5.38304 17.5348 5.3872C17.4384 5.39136 17.3477 5.43363 17.2825 5.5047C17.2173 5.57578 17.183 5.66985 17.1871 5.76621C17.1913 5.86257 17.2336 5.95333 17.3046 6.01852C18.3375 6.96014 19.0927 8.16671 19.4883 9.50725C19.5461 9.70107 19.7505 9.80943 19.9403 9.7527H19.9406ZM18.5414 16.2752C17.9174 17.6454 17.2403 18.8269 16.4112 19.9942C16.358 20.0728 16.3377 20.1692 16.3546 20.2627C16.3716 20.3562 16.4244 20.4393 16.5018 20.4943C16.5793 20.5493 16.6751 20.5718 16.769 20.5571C16.8628 20.5423 16.9471 20.4914 17.0039 20.4152C17.8606 19.2098 18.5596 17.9898 19.2032 16.5763C19.2406 16.489 19.2423 16.3905 19.208 16.3018C19.1736 16.2132 19.106 16.1416 19.0195 16.1022C18.933 16.0629 18.8345 16.059 18.7452 16.0913C18.6558 16.1236 18.5827 16.1897 18.5414 16.2752ZM14.749 23.1822C15.1381 22.7767 15.761 22.0338 16.1145 21.5912C16.1443 21.5539 16.1664 21.5111 16.1797 21.4652C16.1929 21.4193 16.197 21.3713 16.1917 21.3238C16.1864 21.2764 16.1717 21.2304 16.1487 21.1886C16.1256 21.1468 16.0945 21.11 16.0572 21.0802C16.0199 21.0504 15.9771 21.0282 15.9312 21.015C15.8853 21.0017 15.8372 20.9976 15.7898 21.0029C15.7423 21.0083 15.6964 21.0229 15.6546 21.0459C15.6128 21.069 15.5759 21.1001 15.5461 21.1374C15.2203 21.5454 14.5872 22.3022 14.225 22.6782C14.161 22.7482 14.1269 22.8404 14.1299 22.9352C14.1329 23.03 14.1729 23.1199 14.2413 23.1857C14.3096 23.2514 14.401 23.2879 14.4958 23.2872C14.5907 23.2866 14.6816 23.2489 14.749 23.1822ZM20.4825 10.7894C20.4774 10.742 20.463 10.696 20.4401 10.6541C20.4173 10.6121 20.3864 10.5752 20.3492 10.5452C20.3121 10.5152 20.2694 10.4929 20.2236 10.4794C20.1778 10.4659 20.1298 10.4616 20.0823 10.4667C20.0348 10.4718 19.9888 10.4862 19.9469 10.509C19.905 10.5319 19.868 10.5628 19.838 10.6C19.8081 10.6371 19.7857 10.6798 19.7723 10.7256C19.7588 10.7714 19.7545 10.8194 19.7596 10.8669C19.7886 11.1432 19.8039 11.4243 19.8043 11.704C19.8043 12.6578 19.6326 13.5883 19.2934 14.4698C19.2305 14.6334 19.1672 14.7945 19.1039 14.9542C19.0699 15.0433 19.0723 15.1423 19.1106 15.2297C19.149 15.3172 19.2201 15.386 19.3088 15.4214C19.3974 15.4569 19.4964 15.456 19.5844 15.4191C19.6724 15.3821 19.7424 15.312 19.7792 15.224C19.8443 15.0614 19.9079 14.8974 19.9723 14.7305C20.3436 13.7646 20.5332 12.7384 20.5316 11.7036C20.5316 11.3982 20.5148 11.0902 20.4825 10.7894Z" fill="black"/>
<path d="M12.0781 4.69745C9.20351 4.69745 6.5806 6.50109 5.55187 9.18581C4.96387 10.7236 4.59114 11.348 3.55805 12.5262C3.52575 12.562 3.50089 12.6038 3.48492 12.6493C3.46894 12.6948 3.46216 12.743 3.46498 12.7911C3.46779 12.8392 3.48015 12.8863 3.50133 12.9296C3.5225 12.9729 3.55208 13.0115 3.58833 13.0433C3.62458 13.0751 3.66679 13.0993 3.71249 13.1146C3.7582 13.1299 3.80649 13.136 3.85457 13.1325C3.90264 13.129 3.94953 13.1159 3.99252 13.0941C4.03551 13.0723 4.07373 13.0422 4.10496 13.0054C5.19514 11.7622 5.61223 11.0636 6.23078 9.44618C7.15296 7.04108 9.50242 5.42472 12.0781 5.42472C16.485 5.42472 19.5228 9.85381 17.9471 13.9494C16.7708 17.0124 14.1515 21.6458 11.4061 22.9436C11.3221 22.9868 11.2582 23.0609 11.2278 23.1504C11.1975 23.2398 11.2031 23.3375 11.2434 23.4229C11.2838 23.5082 11.3557 23.5746 11.4441 23.6079C11.5324 23.6412 11.6303 23.6389 11.717 23.6014C14.6941 22.1938 17.365 17.4934 18.6261 14.2105C20.3824 9.64545 16.9991 4.69745 12.0781 4.69745Z" fill="black"/>
<path d="M14.3016 19.2109C14.3595 19.1337 14.3843 19.0367 14.3707 18.9413C14.3571 18.8458 14.3061 18.7597 14.2289 18.7018C14.1518 18.6439 14.0548 18.6191 13.9593 18.6327C13.8638 18.6464 13.7777 18.6974 13.7198 18.7745C12.6871 20.152 11.8798 21.1298 10.75 21.6603C10.6628 21.7015 10.5954 21.7755 10.5627 21.8663C10.53 21.957 10.5346 22.057 10.5755 22.1443C10.662 22.3272 10.8791 22.4032 11.0598 22.3189C12.3482 21.7127 13.1576 20.7382 14.3016 19.2109ZM4.18164 15.5538C4.39 15.0156 4.69073 14.5222 5.07509 14.0883C5.80091 13.2716 6.25 12.6771 6.626 12.0345C6.67306 11.9514 6.68552 11.8531 6.66067 11.7608C6.63582 11.6686 6.57566 11.5898 6.4932 11.5415C6.41074 11.4933 6.31261 11.4794 6.22001 11.5029C6.12742 11.5265 6.0478 11.5855 5.99837 11.6672C5.64855 12.2654 5.22346 12.8269 4.53109 13.6054C4.0905 14.1013 3.74233 14.6722 3.50309 15.2909C3.46823 15.3809 3.47054 15.481 3.50951 15.5693C3.54848 15.6576 3.62093 15.7267 3.71091 15.7616C3.80089 15.7965 3.90104 15.7942 3.98931 15.7552C4.07759 15.7162 4.14677 15.6438 4.18164 15.5538ZM10.8129 6.29088C10.7657 6.3011 10.7209 6.32063 10.6813 6.34834C10.6417 6.37605 10.608 6.41138 10.5822 6.45226C10.5564 6.49314 10.539 6.53876 10.5311 6.58644C10.5231 6.63413 10.5247 6.68292 10.5358 6.72996C10.547 6.77701 10.5674 6.82137 10.5958 6.86044C10.6243 6.89951 10.6603 6.93252 10.7016 6.95752C10.743 6.98253 10.789 6.99903 10.8368 7.00607C10.8846 7.01311 10.9334 7.01054 10.9802 6.99852C11.6409 6.84293 12.327 6.82885 12.9935 6.9572C13.66 7.08555 14.2918 7.35343 14.8475 7.74325C14.9266 7.79841 15.0244 7.81988 15.1194 7.80294C15.2143 7.78599 15.2987 7.73201 15.3538 7.65288C15.409 7.57375 15.4305 7.47595 15.4135 7.38099C15.3966 7.28603 15.3426 7.20168 15.2635 7.14652C14.6237 6.69834 13.8965 6.39043 13.1295 6.24298C12.3624 6.09552 11.5732 6.11185 10.8129 6.29088ZM9.36855 6.85561C8.23618 7.49234 7.35982 8.50361 6.902 9.70179C6.81152 9.93846 6.7172 10.1736 6.61909 10.4072C6.59891 10.4515 6.58781 10.4993 6.58644 10.548C6.58508 10.5966 6.59348 10.645 6.61115 10.6903C6.62882 10.7356 6.6554 10.7769 6.68932 10.8117C6.72323 10.8466 6.7638 10.8743 6.80861 10.8932C6.85342 10.9121 6.90156 10.9218 6.9502 10.9218C6.99883 10.9218 7.04696 10.912 7.09174 10.893C7.13653 10.874 7.17705 10.8463 7.21092 10.8114C7.24478 10.7765 7.2713 10.7351 7.28891 10.6898C7.38382 10.4643 7.48018 10.2243 7.58127 9.96216C7.97873 8.92143 8.74018 8.04361 9.72527 7.48979C9.80937 7.44254 9.87125 7.36381 9.8973 7.27093C9.92335 7.17804 9.91144 7.07862 9.86418 6.99452C9.81693 6.91042 9.7382 6.84854 9.64532 6.82249C9.55243 6.79644 9.45264 6.80835 9.36855 6.85561ZM14.6453 18.1058C14.7264 18.158 14.8249 18.1758 14.9191 18.1553C15.0134 18.1349 15.0956 18.0778 15.1478 17.9967C15.9005 16.8276 16.5333 15.572 17.1384 14.0451C17.1722 13.9558 17.1695 13.8568 17.131 13.7694C17.0924 13.6821 17.0211 13.6134 16.9323 13.5782C16.8436 13.543 16.7445 13.5442 16.6566 13.5814C16.5687 13.6186 16.4989 13.6889 16.4624 13.7771C15.8751 15.2585 15.2627 16.4745 14.5362 17.6032C14.484 17.6844 14.4662 17.7829 14.4867 17.8771C14.5071 17.9714 14.5642 18.0536 14.6453 18.1058ZM17.1595 12.8803C17.2547 12.8955 17.3521 12.8723 17.4301 12.8157C17.5082 12.7591 17.5606 12.6738 17.5758 12.5785C17.6216 12.2912 17.6449 11.9967 17.6449 11.704C17.6449 10.4665 17.2376 9.22397 16.4005 8.19997C16.3395 8.12528 16.2513 8.0779 16.1553 8.06825C16.0593 8.0586 15.9634 8.08747 15.8887 8.14852C15.814 8.20957 15.7667 8.29779 15.757 8.39377C15.7474 8.48976 15.7762 8.58564 15.8373 8.66034C16.5645 9.54943 16.9173 10.6276 16.9173 11.704C16.9173 11.9589 16.8969 12.2145 16.8576 12.464C16.8426 12.5592 16.8659 12.6564 16.9225 12.7344C16.9791 12.8124 17.0643 12.8648 17.1595 12.88V12.8803ZM8.69727 22.1189C8.60083 22.1189 8.50834 22.1572 8.44014 22.2254C8.37195 22.2936 8.33364 22.3861 8.33364 22.4825C8.33364 22.579 8.37195 22.6715 8.44014 22.7396C8.50834 22.8078 8.60083 22.8462 8.69727 22.8462C8.99036 22.8462 9.28637 22.8222 9.57727 22.7756C9.62443 22.7681 9.66964 22.7513 9.71032 22.7263C9.751 22.7013 9.78635 22.6685 9.81436 22.6298C9.84237 22.5911 9.86249 22.5473 9.87356 22.5009C9.88464 22.4544 9.88646 22.4062 9.87891 22.3591C9.87137 22.3119 9.85461 22.2667 9.82959 22.226C9.80457 22.1853 9.77179 22.15 9.73311 22.122C9.69443 22.094 9.65061 22.0739 9.60416 22.0628C9.5577 22.0517 9.50952 22.0499 9.46237 22.0574C9.20964 22.0982 8.95218 22.1189 8.69727 22.1189Z" fill="black"/>
<path d="M8.69652 21.4022C9.87289 21.4022 10.9951 20.8967 11.7751 20.016C13.7663 17.7687 14.8529 15.9789 15.9282 13.176C16.7536 11.0251 15.6518 8.56654 13.3943 7.80399C11.2842 7.0909 9.0227 8.20327 8.24998 10.22C7.52489 12.1138 6.95761 13.0476 5.6118 14.5658C4.14598 16.2178 4.25107 18.7171 5.85107 20.256C6.61451 20.9934 7.63511 21.4045 8.69652 21.4022ZM6.15579 15.0484C7.57034 13.4527 8.1667 12.4705 8.92889 10.48C9.56161 8.83018 11.4154 7.90363 13.1612 8.49308C15.0114 9.11854 15.9329 11.1349 15.2492 12.9153C14.2089 15.6273 13.1572 17.3589 11.2303 19.5338C10.9127 19.8924 10.5226 20.1795 10.0859 20.3762C9.64909 20.5729 9.17555 20.6747 8.69652 20.6749C7.82323 20.6767 6.98356 20.3383 6.35543 19.7316C5.03761 18.4647 4.94998 16.4076 6.15579 15.0484Z" fill="black"/>
<path d="M8.69627 19.9575H8.71445C9.08892 19.9547 9.45863 19.8732 9.79956 19.7183C10.1405 19.5634 10.445 19.3385 10.6934 19.0582C11.3046 18.3684 11.8112 17.7411 12.2425 17.1404C12.2987 17.062 12.3215 16.9645 12.3058 16.8694C12.2902 16.7742 12.2374 16.6892 12.159 16.6329C12.0806 16.5767 11.9832 16.5539 11.888 16.5696C11.7928 16.5852 11.7078 16.638 11.6515 16.7164C10.5897 18.1964 9.961 19.1251 8.69627 19.2302C8.19667 19.2313 7.71629 19.0377 7.357 18.6906C6.78973 18.1451 6.61809 17.3611 6.84864 16.6749C6.87466 16.5848 6.86488 16.4881 6.82132 16.405C6.77776 16.3219 6.70379 16.2588 6.61485 16.2289C6.5259 16.199 6.42886 16.2046 6.34396 16.2446C6.25906 16.2845 6.19286 16.3557 6.15918 16.4433C5.84282 17.3858 6.07336 18.4647 6.85264 19.2146C7.34725 19.6924 8.00852 19.9589 8.69627 19.9575ZM7.58973 15.6022C8.69954 14.3022 9.31591 13.3138 9.94536 11.8251C9.98298 11.7363 9.98376 11.6362 9.94755 11.5468C9.91134 11.4574 9.84109 11.386 9.75227 11.3484C9.66345 11.3108 9.56332 11.31 9.47392 11.3462C9.38451 11.3824 9.31316 11.4527 9.27554 11.5415C8.67845 12.9542 8.09191 13.8931 7.03627 15.1298C6.97363 15.2032 6.94271 15.2985 6.95032 15.3947C6.95792 15.4909 7.00342 15.5801 7.07682 15.6427C7.15021 15.7054 7.24548 15.7363 7.34167 15.7287C7.43786 15.7211 7.52709 15.6756 7.58973 15.6022ZM10.5061 10.5731C10.7463 10.2345 11.0893 9.98233 11.4842 9.85419C11.8791 9.72605 12.3048 9.72873 12.6981 9.86184C13.0827 9.98988 13.4179 10.2344 13.6574 10.5615C13.6855 10.6 13.721 10.6327 13.7618 10.6575C13.8026 10.6824 13.8479 10.6989 13.8951 10.7063C13.9423 10.7136 13.9904 10.7116 14.0368 10.7003C14.0833 10.689 14.127 10.6687 14.1655 10.6406C14.2041 10.6124 14.2367 10.5769 14.2616 10.5361C14.2864 10.4953 14.303 10.45 14.3103 10.4029C14.3177 10.3557 14.3157 10.3075 14.3044 10.2611C14.2931 10.2147 14.2728 10.1709 14.2446 10.1324C13.9168 9.68405 13.4577 9.34881 12.9308 9.17311C12.3896 8.98996 11.8038 8.98614 11.2602 9.16221C10.7167 9.33829 10.2444 9.68487 9.91336 10.1506C9.86185 10.2293 9.8428 10.3249 9.86018 10.4174C9.87757 10.5098 9.93005 10.592 10.0066 10.6467C10.0832 10.7013 10.178 10.7242 10.2711 10.7106C10.3642 10.6969 10.4484 10.6474 10.5061 10.5731ZM14.0283 11.7066C14.0281 11.9428 13.9845 12.1769 13.8999 12.3975C13.413 13.6666 12.9595 14.6317 12.4294 15.5269C12.3802 15.6099 12.366 15.709 12.3899 15.8025C12.4138 15.896 12.4738 15.9761 12.5568 16.0253C12.6398 16.0745 12.7389 16.0887 12.8324 16.0648C12.9259 16.0409 13.006 15.9808 13.0552 15.8978C13.6072 14.9658 14.077 13.9666 14.5788 12.6578C14.6952 12.3557 14.7548 12.036 14.7555 11.7087C14.7557 11.661 14.7464 11.6137 14.7283 11.5695C14.7101 11.5253 14.6835 11.4852 14.6498 11.4513C14.6161 11.4174 14.5761 11.3905 14.5321 11.3721C14.488 11.3537 14.4408 11.3442 14.393 11.344H14.3919C14.2957 11.344 14.2033 11.3822 14.1352 11.4501C14.067 11.5181 14.0286 11.6103 14.0283 11.7066Z" fill="black"/>
<path d="M12.4681 10.5415C12.1719 10.4418 11.8486 10.4602 11.5656 10.5928C11.2825 10.7254 11.0615 10.9621 10.9485 11.2535C10.0958 13.4789 9.3536 14.7015 7.77251 16.4848C7.34014 16.972 7.37105 17.7088 7.85432 18.1735C8.35978 18.6593 9.15796 18.6128 9.61214 18.1004C11.3903 16.0924 12.27 14.6444 13.2303 12.1404C13.2902 11.9857 13.3178 11.8205 13.3115 11.6548C13.3052 11.4891 13.2652 11.3264 13.1938 11.1767C13.1225 11.027 13.0213 10.8934 12.8965 10.7842C12.7717 10.675 12.626 10.5924 12.4681 10.5415ZM12.5518 11.8797C11.6263 14.2906 10.7798 15.6851 9.06741 17.6178C8.88923 17.8197 8.5656 17.8488 8.34632 17.6371C8.25567 17.551 8.20192 17.4331 8.19636 17.3082C8.1908 17.1833 8.23387 17.0611 8.31651 16.9673C9.96523 15.108 10.7383 13.8338 11.6274 11.5135C11.7209 11.2695 11.9983 11.1524 12.2165 11.2237L12.2518 11.236C12.5172 11.3258 12.6521 11.6186 12.5518 11.8797Z" fill="black"/>
</svg>
