<svg width="18" height="18" viewBox="0 0 18 18" fill="none" xmlns="http://www.w3.org/2000/svg">
<path d="M5.625 8.95833H5H5.625ZM12.2917 8.95833H12.9167H12.2917ZM8.95833 12.2917V12.9167V12.2917ZM16.6771 5.81161L17.2558 5.57546L16.6771 5.81161ZM10.6828 17.113L10.8115 17.7246L10.6828 17.113ZM7.23383 17.113L7.10514 17.7246L7.23383 17.113ZM1.24051 5.80933L0.661908 5.57301H0.661908L1.24051 5.80933ZM0.803652 10.6828L0.192045 10.8115L0.803652 10.6828ZM7.23383 0.803652L7.10514 0.192045L7.23383 0.803652ZM10.6828 0.803653L10.8115 0.192046L10.6828 0.803653ZM16.609 5.8394L16.4276 5.2413L16.609 5.8394ZM1.30664 5.8391L1.12522 6.43719L1.30664 5.8391ZM16.6771 5.81161L16.0984 6.04776C16.4646 6.94499 16.6667 7.92728 16.6667 8.95833H17.2917H17.9167C17.9167 7.76257 17.6821 6.62006 17.2558 5.57546L16.6771 5.81161ZM17.2917 8.95833H16.6667C16.6667 9.50606 16.6096 10.0398 16.5014 10.5541L17.113 10.6828L17.7246 10.8115C17.8506 10.2131 17.9167 9.59307 17.9167 8.95833H17.2917ZM17.113 10.6828L16.5014 10.5541C15.8752 13.5301 13.5302 15.8752 10.5541 16.5014L10.6828 17.113L10.8115 17.7246C14.2725 16.9964 16.9964 14.2725 17.7246 10.8115L17.113 10.6828ZM10.6828 17.113L10.5541 16.5014C10.0398 16.6096 9.50607 16.6667 8.95833 16.6667V17.2917V17.9167C9.59308 17.9167 10.2131 17.8506 10.8115 17.7246L10.6828 17.113ZM8.95833 17.2917V16.6667C8.4106 16.6667 7.87687 16.6096 7.36252 16.5014L7.23383 17.113L7.10514 17.7246C7.70361 17.8506 8.32359 17.9167 8.95833 17.9167V17.2917ZM0.625 8.95833H1.25C1.25 7.92648 1.45241 6.94346 1.81911 6.04565L1.24051 5.80933L0.661908 5.57301C0.234983 6.61827 1.78814e-07 7.76164 1.78814e-07 8.95833H0.625ZM7.23383 17.113L7.36252 16.5014C4.38652 15.8752 2.04147 13.5301 1.41526 10.5541L0.803652 10.6828L0.192045 10.8115C0.920295 14.2725 3.6442 16.9964 7.10514 17.7246L7.23383 17.113ZM0.803652 10.6828L1.41526 10.5541C1.30703 10.0398 1.25 9.50606 1.25 8.95833H0.625H1.78814e-07C1.78814e-07 9.59307 0.0661134 10.2131 0.192045 10.8115L0.803652 10.6828ZM1.24051 5.80933L1.81911 6.04565C2.77354 3.70887 4.84238 1.94555 7.36252 1.41526L7.23383 0.803652L7.10514 0.192045C4.1728 0.809068 1.77072 2.85825 0.661908 5.57301L1.24051 5.80933ZM7.23383 0.803652L7.36252 1.41526C7.87687 1.30703 8.4106 1.25 8.95833 1.25V0.625V0C8.32359 0 7.70361 0.0661133 7.10514 0.192045L7.23383 0.803652ZM8.95833 0.625V1.25C9.50607 1.25 10.0398 1.30703 10.5541 1.41526L10.6828 0.803653L10.8115 0.192046C10.2131 0.0661135 9.59307 0 8.95833 0V0.625ZM10.6828 0.803653L10.5541 1.41526C13.075 1.94571 15.1444 3.70993 16.0984 6.04776L16.6771 5.81161L17.2558 5.57546C16.1474 2.85948 13.7447 0.809255 10.8115 0.192046L10.6828 0.803653ZM10.6828 0.803653L10.0874 0.993639C10.3174 1.71427 11.1685 4.48587 11.5174 7.03238L12.1366 6.94755L12.7558 6.86272C12.3914 4.2029 11.5116 1.34506 11.2783 0.613666L10.6828 0.803653ZM12.1366 6.94755L11.5174 7.03238C11.6109 7.71483 11.6667 8.37025 11.6667 8.95833H12.2917H12.9167C12.9167 8.29631 12.8542 7.58131 12.7558 6.86272L12.1366 6.94755ZM16.609 5.8394L16.4276 5.2413C15.5131 5.5187 13.7953 6.00587 12.0231 6.33293L12.1366 6.94755L12.25 7.56217C14.088 7.22295 15.8561 6.72087 16.7904 6.43749L16.609 5.8394ZM12.1366 6.94755L12.0231 6.33293C10.9481 6.53133 9.87471 6.66667 8.95833 6.66667V7.29167V7.91667C9.98268 7.91667 11.1399 7.76705 12.25 7.56217L12.1366 6.94755ZM12.2917 8.95833H11.6667C11.6667 9.82957 11.5443 10.8434 11.3614 11.8666L11.9766 11.9766L12.5919 12.0866C12.7812 11.0277 12.9167 9.93319 12.9167 8.95833H12.2917ZM11.9766 11.9766L11.3614 11.8666C10.9604 14.1093 10.2867 16.2984 10.0874 16.923L10.6828 17.113L11.2783 17.303C11.4828 16.6619 12.1763 14.411 12.5919 12.0866L11.9766 11.9766ZM17.113 10.6828L16.923 10.0874C16.2984 10.2867 14.1093 10.9604 11.8666 11.3614L11.9766 11.9766L12.0866 12.5919C14.411 12.1763 16.6619 11.4828 17.303 11.2783L17.113 10.6828ZM11.9766 11.9766L11.8666 11.3614C10.8434 11.5443 9.82957 11.6667 8.95833 11.6667V12.2917V12.9167C9.93319 12.9167 11.0277 12.7812 12.0866 12.5919L11.9766 11.9766ZM8.95833 12.2917V11.6667C8.0871 11.6667 7.07322 11.5443 6.05006 11.3614L5.94005 11.9766L5.83005 12.5919C6.88892 12.7812 7.98348 12.9167 8.95833 12.9167V12.2917ZM5.94005 11.9766L6.05006 11.3614C3.80739 10.9604 1.61831 10.2867 0.993638 10.0874L0.803652 10.6828L0.613665 11.2783C1.25474 11.4828 3.5057 12.1763 5.83005 12.5919L5.94005 11.9766ZM5.625 8.95833H5C5 9.93319 5.13549 11.0277 5.32481 12.0866L5.94005 11.9766L6.5553 11.8666C6.37236 10.8434 6.25 9.82957 6.25 8.95833H5.625ZM5.94005 11.9766L5.32481 12.0866C5.7404 14.411 6.43386 16.6619 6.63841 17.303L7.23383 17.113L7.82925 16.923C7.62994 16.2984 6.95628 14.1093 6.5553 11.8666L5.94005 11.9766ZM7.23383 0.803652L6.63841 0.613665C6.40503 1.34506 5.52525 4.2029 5.16087 6.86272L5.78009 6.94755L6.3993 7.03238C6.74816 4.48587 7.59932 1.71427 7.82925 0.993639L7.23383 0.803652ZM5.78009 6.94755L5.16087 6.86272C5.06243 7.58131 5 8.29631 5 8.95833H5.625H6.25C6.25 8.37025 6.30581 7.71483 6.3993 7.03238L5.78009 6.94755ZM8.95833 7.29167V6.66667C8.04196 6.66667 6.96853 6.53133 5.89352 6.33293L5.78009 6.94755L5.66665 7.56217C6.77676 7.76705 7.93398 7.91667 8.95833 7.91667V7.29167ZM5.78009 6.94755L5.89352 6.33293C4.12075 6.00575 2.40238 5.51835 1.48806 5.24101L1.30664 5.8391L1.12522 6.43719C2.05929 6.72052 3.828 7.22283 5.66665 7.56217L5.78009 6.94755ZM16.6771 5.81161L16.3891 5.25693C16.4001 5.25119 16.4134 5.24563 16.4276 5.2413L16.609 5.8394L16.7904 6.43749C16.8521 6.41879 16.9101 6.39485 16.9651 6.36629L16.6771 5.81161ZM1.24051 5.80933L0.914429 6.34253C0.979195 6.38213 1.04949 6.41422 1.12522 6.43719L1.30664 5.8391L1.48806 5.24101C1.51694 5.24977 1.54358 5.26206 1.56659 5.27613L1.24051 5.80933Z" fill="#0B3C5D"/>
</svg>
