<svg width="20" height="20" viewBox="0 0 20 20" fill="none" xmlns="http://www.w3.org/2000/svg">
<path d="M19.1668 10.75C19.581 10.75 19.9168 10.4142 19.9168 10C19.9168 9.58579 19.581 9.25 19.1668 9.25V10V10.75ZM0.833496 9.25C0.419283 9.25 0.0834961 9.58579 0.0834961 10C0.0834961 10.4142 0.419283 10.75 0.833496 10.75V10V9.25ZM2.50016 13.3333H1.75016V13.3333H2.50016ZM3.25016 12.5C3.25016 12.0858 2.91438 11.75 2.50016 11.75C2.08595 11.75 1.75016 12.0858 1.75016 12.5H2.50016H3.25016ZM7.50016 18.25C7.91438 18.25 8.25016 17.9142 8.25016 17.5C8.25016 17.0858 7.91438 16.75 7.50016 16.75V17.5V18.25ZM6.66683 17.5V16.75V16.75V17.5ZM7.50016 3.25C7.91438 3.25 8.25016 2.91421 8.25016 2.5C8.25016 2.08579 7.91438 1.75 7.50016 1.75V2.5V3.25ZM1.75016 7.5C1.75016 7.91421 2.08595 8.25 2.50016 8.25C2.91438 8.25 3.25016 7.91421 3.25016 7.5H2.50016H1.75016ZM2.50016 6.66667H1.75016H2.50016ZM17.5002 6.66667H16.7502V6.66667H17.5002ZM16.7502 7.5C16.7502 7.91421 17.086 8.25 17.5002 8.25C17.9144 8.25 18.2502 7.91421 18.2502 7.5H17.5002H16.7502ZM12.5002 1.75C12.0859 1.75 11.7502 2.08579 11.7502 2.5C11.7502 2.91421 12.0859 3.25 12.5002 3.25V2.5V1.75ZM13.3335 2.5V1.75V2.5ZM13.3335 17.5V16.75V16.75V17.5ZM12.5002 16.75C12.0859 16.75 11.7502 17.0858 11.7502 17.5C11.7502 17.9142 12.0859 18.25 12.5002 18.25V17.5V16.75ZM18.2502 12.5C18.2502 12.0858 17.9144 11.75 17.5002 11.75C17.086 11.75 16.7502 12.0858 16.7502 12.5H17.5002H18.2502ZM17.5002 13.3333H18.2502V13.3333H17.5002ZM19.1668 10V9.25H0.833496V10V10.75H19.1668V10ZM2.50016 13.3333H3.25016V12.5H2.50016H1.75016V13.3333H2.50016ZM7.50016 17.5V16.75H6.66683V17.5V18.25H7.50016V17.5ZM2.50016 13.3333H1.75016C1.75016 16.0487 3.95143 18.25 6.66683 18.25V17.5V16.75C4.77986 16.75 3.25016 15.2203 3.25016 13.3333H2.50016ZM6.66683 2.5V3.25H7.50016V2.5V1.75H6.66683V2.5ZM2.50016 7.5H3.25016V6.66667H2.50016H1.75016V7.5H2.50016ZM6.66683 2.5V1.75C3.95143 1.75 1.75016 3.95127 1.75016 6.66667H2.50016H3.25016C3.25016 4.77969 4.77986 3.25 6.66683 3.25V2.5ZM17.5002 6.66667H16.7502V7.5H17.5002H18.2502V6.66667H17.5002ZM12.5002 2.5V3.25L13.3335 3.25V2.5V1.75L12.5002 1.75V2.5ZM17.5002 6.66667H18.2502C18.2502 3.95127 16.0489 1.75 13.3335 1.75V2.5V3.25C15.2205 3.25 16.7502 4.77969 16.7502 6.66667H17.5002ZM13.3335 17.5V16.75H12.5002V17.5V18.25H13.3335V17.5ZM17.5002 12.5H16.7502V13.3333H17.5002H18.2502V12.5H17.5002ZM13.3335 17.5V18.25C16.0489 18.25 18.2502 16.0487 18.2502 13.3333H17.5002H16.7502C16.7502 15.2203 15.2205 16.75 13.3335 16.75V17.5Z" fill="#0B3C5D"/>
</svg>
