<svg width="20" height="20" viewBox="0 0 20 20" fill="none" xmlns="http://www.w3.org/2000/svg">
<path d="M12.757 17.0033L12.2476 16.6039V16.6039L12.757 17.0033ZM7.95682 17.0033L7.44744 17.4028L7.95682 17.0033ZM10.3569 18.9928V18.3454V18.9928ZM17.2617 8.29316H16.6144C16.6144 9.35174 16.0623 10.7682 15.1935 12.3043C14.339 13.8149 13.2347 15.3452 12.2476 16.6039L12.757 17.0033L13.2664 17.4028C14.2729 16.1193 15.4209 14.5318 16.3203 12.9416C17.2055 11.3768 17.909 9.70926 17.909 8.29316H17.2617ZM7.95682 17.0033L8.4662 16.6039C7.47916 15.3452 6.37483 13.8149 5.52034 12.3043C4.65152 10.7682 4.09947 9.35174 4.09947 8.29316H3.45215H2.80483C2.80483 9.70926 3.50834 11.3768 4.39347 12.9416C5.29294 14.5318 6.44094 16.1193 7.44744 17.4028L7.95682 17.0033ZM3.45215 8.29316H4.09947C4.09947 4.5016 6.94491 1.51036 10.3569 1.51036V0.863037V0.215716C6.14212 0.215716 2.80483 3.87763 2.80483 8.29316H3.45215ZM10.3569 0.863037V1.51036C13.7689 1.51036 16.6144 4.5016 16.6144 8.29316H17.2617H17.909C17.909 3.87763 14.5717 0.215716 10.3569 0.215716V0.863037ZM12.757 17.0033L12.2476 16.6039C11.7134 17.2851 11.3617 17.7301 11.0467 18.0163C10.7594 18.2772 10.5677 18.3454 10.3569 18.3454V18.9928V19.6401C10.9862 19.6401 11.4744 19.3768 11.9172 18.9746C12.3322 18.5975 12.7605 18.0478 13.2664 17.4028L12.757 17.0033ZM7.95682 17.0033L7.44744 17.4028C7.95329 18.0478 8.3816 18.5975 8.79664 18.9746C9.23941 19.3768 9.72766 19.6401 10.3569 19.6401V18.9928V18.3454C10.1462 18.3454 9.9544 18.2772 9.66714 18.0163C9.35216 17.7301 9.00042 17.2851 8.4662 16.6039L7.95682 17.0033ZM7.76762 8.63089H7.1203C7.1203 10.4184 8.56938 11.8675 10.3569 11.8675V11.2202V10.5729C9.28439 10.5729 8.41495 9.70341 8.41495 8.63089H7.76762ZM10.3569 11.2202V11.8675C12.1444 11.8675 13.5935 10.4184 13.5935 8.63089H12.9462H12.2989C12.2989 9.70341 11.4294 10.5729 10.3569 10.5729V11.2202ZM12.9462 8.63089H13.5935C13.5935 6.84337 12.1444 5.39429 10.3569 5.39429V6.04161V6.68893C11.4294 6.68893 12.2989 7.55838 12.2989 8.63089H12.9462ZM10.3569 6.04161V5.39429C8.56938 5.39429 7.1203 6.84337 7.1203 8.63089H7.76762H8.41495C8.41495 7.55838 9.28439 6.68893 10.3569 6.68893V6.04161Z" fill="#0B3C5D"/>
</svg>
