<svg width="18" height="23" viewBox="0 0 18 23" fill="none" xmlns="http://www.w3.org/2000/svg">
<path d="M11.9331 1.36489C11.2312 0.974049 10.421 0.75 9.55286 0.75H7.84995C4.90552 0.75 2.62737 3.33064 2.99258 6.25234L3.07194 6.88719C3.21808 8.05631 2.79102 9.2241 1.92514 10.0231C0.74242 11.1145 0.413827 12.8516 1.11619 14.2996L1.21954 14.5127C1.88331 15.8811 3.27054 16.75 4.79144 16.75H13.0123C14.3156 16.75 15.5285 16.0842 16.2283 14.9847C17.2161 13.4326 16.9545 11.3965 15.6064 10.1445L15.5625 10.1038C15.1491 9.71984 14.8305 9.25669 14.6197 8.75C14.5336 8.54308 14.4654 8.3289 14.4162 8.10988M5.93317 19.75L6.23317 20.15C7.58317 21.95 10.2832 21.95 11.6332 20.15L11.9332 19.75" stroke="#0B3C5D" stroke-width="1.5" stroke-linecap="round"/>
<path d="M15.9331 4.75C15.9331 5.85457 15.0377 6.75 13.9331 6.75C12.8285 6.75 11.9331 5.85457 11.9331 4.75C11.9331 3.64543 12.8285 2.75 13.9331 2.75C15.0377 2.75 15.9331 3.64543 15.9331 4.75Z" fill="#0B3C5D"/>
</svg>
