<svg width="24" height="24" viewBox="0 0 24 24" fill="none" xmlns="http://www.w3.org/2000/svg">
<path d="M11.5125 1.60688C11.7525 1.46438 12.045 1.46438 12.2775 1.60688L20.4675 6.58687C20.6625 6.70688 20.7825 6.92438 20.7825 7.14937L11.895 13.125L3 7.22432V7.14937C3 6.92438 3.12 6.70687 3.315 6.59437L11.5125 1.60688Z" fill="#F3C07B"/>
<path d="M11.892 12.1847L20.412 7.00968C20.4493 6.98741 20.492 6.97544 20.5355 6.97499C20.579 6.97453 20.6218 6.98562 20.6596 7.00712C20.6974 7.02862 20.7289 7.05974 20.7507 7.09734C20.7726 7.13495 20.7841 7.17768 20.7841 7.22117V16.4762C20.7841 16.6991 20.7269 16.9182 20.6179 17.1126C20.5089 17.307 20.3517 17.47 20.1615 17.5862L12.1816 22.4312C12.1612 22.4423 12.1391 22.45 12.1163 22.4537C12.0961 22.4597 12.0751 22.4625 12.054 22.462C11.9689 22.4858 11.8798 22.4927 11.792 22.482C11.7042 22.4713 11.6194 22.4433 11.5425 22.3997H11.547L9.75 14.2499L11.892 12.1847Z" fill="#FFCE7C"/>
<path d="M11.895 22.2167V12.1892L3.3825 7.01426C3.21 6.90926 3 7.02926 3 7.22426V16.4792C3 16.9367 3.24 17.3567 3.6225 17.5892L11.55 22.4042C11.7 22.5017 11.895 22.3892 11.895 22.2167Z" fill="#E19747"/>
<path d="M10.8752 20.0868V18.6168C10.8752 18.4443 10.7852 18.2868 10.6427 18.1968L8.54272 16.9293C8.40022 16.8468 8.22021 16.9443 8.22021 17.1093V18.5793C8.22021 18.7518 8.31022 18.9093 8.45272 18.9993L10.5527 20.2668C10.6952 20.3493 10.8752 20.2518 10.8752 20.0868Z" fill="#D3D3D3"/>
<path d="M8.81986 12.4143V10.3218V8.99442L6.35986 8.82935V11.1993C6.35986 11.2743 6.39736 11.3493 6.46486 11.3943L8.47486 12.6168C8.62486 12.6993 8.81986 12.5943 8.81986 12.4143Z" fill="#8C5543"/>
<path d="M15.2549 3.42188L6.35986 8.82938L8.81986 10.3294L17.7149 4.92938L15.2549 3.42188Z" fill="#A56953"/>
</svg>
