<svg width="24" height="24" viewBox="0 0 24 24" fill="none" xmlns="http://www.w3.org/2000/svg">
<path d="M15 17H11M8 17H6M21.989 10C21.9595 8.46078 21.8514 7.50797 21.455 6.73005C20.9757 5.78924 20.2108 5.02433 19.27 4.54497C18.2004 4 16.8003 4 14 4H10C7.19974 4 5.79961 4 4.73005 4.54497C3.78924 5.02433 3.02433 5.78924 2.54497 6.73005C2.14859 7.50797 2.04052 8.46078 2.01105 10C2 10.577 2 11.2365 2 12C2 14.8003 2 16.2004 2.54497 17.27C3.02433 18.2108 3.78924 18.9757 4.73005 19.455C5.79961 20 7.19974 20 10 20H14C16.8003 20 18.2004 20 19.27 19.455C20.2108 18.9757 20.9757 18.2108 21.455 17.27C22 16.2004 22 14.8003 22 12C22 11.2365 22 10.577 21.989 10ZM2.01105 10H21.989" stroke="#0B3C5D" stroke-width="1.5" stroke-linecap="round"/>
</svg>
