<svg width="27" height="27" viewBox="0 0 27 27" fill="none" xmlns="http://www.w3.org/2000/svg">
<rect width="26.8624" height="26.8624" rx="3.3578" fill="#0B3C5D"/>
<path d="M14.1308 8.53438C14.1308 8.14803 13.8176 7.83484 13.4313 7.83484C13.0449 7.83484 12.7318 8.14803 12.7318 8.53438V12.7316H8.5345C8.14816 12.7316 7.83496 13.0448 7.83496 13.4312C7.83496 13.8175 8.14816 14.1307 8.5345 14.1307H12.7317V18.328C12.7317 18.7143 13.0449 19.0275 13.4313 19.0275C13.8176 19.0275 14.1308 18.7143 14.1308 18.328V14.1307H18.3281C18.7144 14.1307 19.0276 13.8175 19.0276 13.4312C19.0276 13.0448 18.7144 12.7316 18.3281 12.7316H14.1308V8.53438Z" fill="white"/>
</svg>
