<svg width="20" height="20" viewBox="0 0 20 20" fill="none" xmlns="http://www.w3.org/2000/svg">
<path d="M9.99984 19.375C14.7573 19.375 18.6286 15.5043 18.6286 10.7462C18.6286 7.11496 16.3386 3.85246 12.9292 2.62871C12.7732 2.57276 12.6013 2.58111 12.4513 2.6519C12.3014 2.7227 12.1858 2.85014 12.1298 3.00621C12.0739 3.16227 12.0822 3.33416 12.153 3.48408C12.2238 3.63399 12.3513 3.74964 12.5073 3.80558C15.4211 4.85121 17.3786 7.64058 17.3786 10.7462C17.3786 14.815 14.0686 18.125 9.99984 18.125C5.93109 18.125 2.62109 14.815 2.62109 10.7462C2.62109 7.63996 4.57859 4.85121 7.49234 3.80558C7.64841 3.74964 7.77585 3.63399 7.84665 3.48408C7.91744 3.33416 7.92579 3.16227 7.86984 3.00621C7.8139 2.85014 7.69825 2.7227 7.54834 2.6519C7.39843 2.58111 7.22653 2.57276 7.07047 2.62871C3.66109 3.85246 1.37109 7.11433 1.37109 10.7462C1.37109 15.5043 5.24234 19.375 9.99984 19.375Z" fill="white"/>
<path d="M9.375 1.25V6.68125C9.375 6.84701 9.44085 7.00598 9.55806 7.12319C9.67527 7.2404 9.83424 7.30625 10 7.30625C10.1658 7.30625 10.3247 7.2404 10.4419 7.12319C10.5592 7.00598 10.625 6.84701 10.625 6.68125V1.25C10.625 1.08424 10.5592 0.925269 10.4419 0.808058C10.3247 0.690848 10.1658 0.625 10 0.625C9.83424 0.625 9.67527 0.690848 9.55806 0.808058C9.44085 0.925269 9.375 1.08424 9.375 1.25Z" fill="white"/>
</svg>
