<svg width="20" height="22" viewBox="0 0 20 22" fill="none" xmlns="http://www.w3.org/2000/svg">
<path d="M12.7274 8.75L10.7059 11.2588C9.90483 12.2529 9.5043 12.75 8.97738 12.75C8.45046 12.75 8.04994 12.2529 7.24889 11.2588L6.72738 10.6116M16.6164 14.75C18.2182 11.8309 18.6294 8.4998 18.7103 6.3869C18.7567 5.17655 17.7569 4.25 16.5456 4.25H15.9563C14.9898 4.25 14.2063 3.4665 14.2063 2.5C14.2063 1.5335 13.4228 0.75 12.4563 0.75H7.29027C6.16268 0.75 5.2486 1.66409 5.2486 2.79167C5.2486 3.91925 4.33451 4.83333 3.20693 4.83333H2.89807C1.68997 4.83333 0.691736 5.75211 0.752648 6.95867C0.851135 8.90954 1.28463 11.9183 2.83845 14.75C3.26106 15.5202 3.83504 16.293 4.47246 17.0295C6.45238 19.317 7.44234 20.4607 9.72744 20.4607C12.0125 20.4607 13.0025 19.317 14.9824 17.0295C15.6198 16.293 16.1938 15.5202 16.6164 14.75Z" stroke="#0B3C5D" stroke-width="1.5" stroke-linecap="round"/>
</svg>
