<svg width="19" height="19" viewBox="0 0 19 19" fill="none" xmlns="http://www.w3.org/2000/svg">
<path d="M2.74704 16.8027L3.13891 16.1632V16.1632L2.74704 16.8027ZM1.37145 15.4271L2.01093 15.0352V15.0352L1.37145 15.4271ZM16.8101 15.4271L16.1706 15.0352V15.0352L16.8101 15.4271ZM15.4345 16.8027L15.0427 16.1632V16.1632L15.4345 16.8027ZM15.4345 3.864L15.0427 4.50348V4.50348L15.4345 3.864ZM16.8101 5.23959L16.1706 5.63146V5.63146L16.8101 5.23959ZM2.74704 3.864L3.13891 4.50348V4.50348L2.74704 3.864ZM1.37145 5.23959L2.01093 5.63146V5.63146L1.37145 5.23959ZM14.4881 1.20537L15.0294 0.686202V0.686201L14.4881 1.20537ZM2.2943 1.49233L2.74714 2.09018V2.09018L2.2943 1.49233ZM1.46949 2.35222L2.08481 2.78104L1.46949 2.35222ZM14.9241 3.3586H15.6741L15.6741 3.3549L14.9241 3.3586ZM14.3938 10.553C14.808 10.553 15.1438 10.2173 15.1438 9.80304C15.1438 9.38883 14.808 9.05304 14.3938 9.05304V9.80304V10.553ZM12.1211 9.05304C11.7069 9.05304 11.3711 9.38883 11.3711 9.80304C11.3711 10.2173 11.7069 10.553 12.1211 10.553V9.80304V9.05304ZM7.84078 3.25V4H10.3408V3.25V2.5H7.84078V3.25ZM10.3408 17.4167V16.6667H7.84078V17.4167V18.1667H10.3408V17.4167ZM7.84078 17.4167V16.6667C6.46233 16.6667 5.48116 16.6659 4.71769 16.5933C3.96538 16.5218 3.50224 16.3858 3.13891 16.1632L2.74704 16.8027L2.35516 17.4421C2.99379 17.8335 3.7136 18.0046 4.57571 18.0865C5.42665 18.1675 6.49138 18.1667 7.84078 18.1667V17.4167ZM0.75745 10.3333H0.00744957C0.00744957 11.6827 0.00665832 12.7475 0.0875668 13.5984C0.169537 14.4605 0.340619 15.1803 0.731969 15.819L1.37145 15.4271L2.01093 15.0352C1.78828 14.6719 1.65236 14.2087 1.58083 13.4564C1.50824 12.693 1.50745 11.7118 1.50745 10.3333H0.75745ZM2.74704 16.8027L3.13891 16.1632C2.67918 15.8815 2.29265 15.4949 2.01093 15.0352L1.37145 15.4271L0.731969 15.819C1.13738 16.4805 1.6936 17.0367 2.35516 17.4421L2.74704 16.8027ZM10.3408 17.4167V18.1667C11.6902 18.1667 12.7549 18.1675 13.6059 18.0865C14.468 18.0046 15.1878 17.8335 15.8264 17.4421L15.4345 16.8027L15.0427 16.1632C14.6793 16.3858 14.2162 16.5218 13.4639 16.5933C12.7004 16.6659 11.7192 16.6667 10.3408 16.6667V17.4167ZM16.8101 15.4271L16.1706 15.0352C15.8889 15.4949 15.5024 15.8815 15.0427 16.1632L15.4345 16.8027L15.8264 17.4421C16.488 17.0367 17.0442 16.4805 17.4496 15.819L16.8101 15.4271ZM15.4345 3.864L15.0427 4.50348C15.5024 4.7852 15.8889 5.17173 16.1706 5.63146L16.8101 5.23959L17.4496 4.84771C17.0442 4.18615 16.488 3.62993 15.8264 3.22452L15.4345 3.864ZM7.84078 3.25V2.5C6.49138 2.5 5.42665 2.49921 4.57571 2.58012C3.7136 2.66209 2.99379 2.83317 2.35516 3.22452L2.74704 3.864L3.13891 4.50348C3.50224 4.28083 3.96538 4.14491 4.71769 4.07338C5.48116 4.00079 6.46233 4 7.84078 4V3.25ZM0.75745 10.3333H1.50745C1.50745 8.95488 1.50824 7.97371 1.58083 7.21024C1.65236 6.45793 1.78828 5.99479 2.01093 5.63146L1.37145 5.23959L0.731969 4.84771C0.340619 5.48634 0.169537 6.20615 0.0875668 7.06826C0.00665832 7.9192 0.00744957 8.98393 0.00744957 10.3333H0.75745ZM2.74704 3.864L2.35516 3.22452C1.6936 3.62993 1.13738 4.18615 0.731969 4.84771L1.37145 5.23959L2.01093 5.63146C2.29265 5.17173 2.67918 4.7852 3.13891 4.50348L2.74704 3.864ZM7.46834 0.75V1.5H11.9423V0.75V0H7.46834V0.75ZM11.9423 0.75V1.5C12.6674 1.5 13.1326 1.50173 13.4745 1.54966C13.7916 1.59411 13.8896 1.66485 13.9468 1.72455L14.4881 1.20537L15.0294 0.686201C14.6498 0.290525 14.1779 0.133582 13.6828 0.0641824C13.2125 -0.00172842 12.6232 0 11.9423 0V0.75ZM7.46834 0.75V0C6.08774 0 4.98951 -0.00111771 4.11615 0.0975296C3.22684 0.19798 2.48176 0.409468 1.84145 0.894469L2.2943 1.49233L2.74714 2.09018C3.08687 1.83286 3.53081 1.67318 4.28451 1.58805C5.05416 1.50112 6.05294 1.5 7.46834 1.5V0.75ZM0.75745 7.74636H1.50745C1.50745 6.27285 1.5084 5.22553 1.59244 4.41686C1.6752 3.62046 1.83174 3.14417 2.08481 2.78104L1.46949 2.35222L0.854167 1.92341C0.395195 2.582 0.195718 3.3453 0.100472 4.26181C0.0065015 5.16604 0.00744957 6.30492 0.00744957 7.74636H0.75745ZM2.2943 1.49233L1.84145 0.894469C1.46144 1.18231 1.1285 1.52977 0.854167 1.92341L1.46949 2.35222L2.08481 2.78104C2.27039 2.51473 2.49414 2.28182 2.74714 2.09018L2.2943 1.49233ZM14.9241 3.3586L15.6741 3.3549C15.6713 2.79206 15.6595 2.29334 15.5868 1.87642C15.5108 1.44043 15.3583 1.02915 15.0294 0.686202L14.4881 1.20537L13.9468 1.72455C14.0018 1.78185 14.0645 1.87803 14.1091 2.13401C14.1571 2.40907 14.1713 2.78684 14.1741 3.36231L14.9241 3.3586ZM0.75745 7.74636H0.00744957C0.00744957 8.55502 -0.00936031 9.30482 0.00770932 9.93691L0.757436 9.91667L1.50716 9.89642C1.49075 9.28882 1.50745 8.60776 1.50745 7.74636H0.75745ZM17.0074 12.0758V11.3258H12.1211V12.0758V12.8258H17.0074V12.0758ZM9.84836 9.80304H9.09836C9.09836 11.4724 10.4517 12.8258 12.1211 12.8258V12.0758V11.3258C11.2801 11.3258 10.5984 10.644 10.5984 9.80304H9.84836ZM9.84836 9.80304H10.5984C10.5984 8.96206 11.2801 8.28031 12.1211 8.28031V7.53031V6.78031C10.4517 6.78031 9.09836 8.13364 9.09836 9.80304H9.84836ZM14.3938 9.80304V9.05304H12.1211V9.80304V10.553H14.3938V9.80304ZM10.3408 3.25V4C11.4961 4 12.3752 4.00032 13.086 4.04418C13.796 4.08799 14.2812 4.17293 14.6578 4.31598L14.9241 3.61484L15.1904 2.9137C14.6064 2.69191 13.9466 2.59443 13.1784 2.54703C12.411 2.49968 11.4788 2.5 10.3408 2.5V3.25ZM14.9241 3.61484L14.6578 4.31598C14.7985 4.3694 14.925 4.43136 15.0427 4.50348L15.4345 3.864L15.8264 3.22452C15.6249 3.10103 15.4138 2.99854 15.1904 2.9137L14.9241 3.61484ZM14.9241 3.3586H14.1741V3.61484H14.9241H15.6741V3.3586H14.9241ZM12.1211 7.53031V8.28031H17.3778V7.53031V6.78031H12.1211V7.53031ZM17.4241 10.3333H18.1741C18.1741 9.18941 18.1744 8.2534 18.1263 7.48353L17.3778 7.53031L16.6293 7.5771C16.6738 8.28963 16.6741 9.1719 16.6741 10.3333H17.4241ZM17.3778 7.53031L18.1263 7.48353C18.0606 6.43128 17.9007 5.58386 17.4496 4.84771L16.8101 5.23959L16.1706 5.63146C16.4286 6.05247 16.5684 6.60359 16.6293 7.5771L17.3778 7.53031ZM17.4241 10.3333H16.6741C16.6741 10.9899 16.6741 11.5593 16.6657 12.0633L17.4156 12.0758L18.1655 12.0882C18.1741 11.5693 18.1741 10.9863 18.1741 10.3333H17.4241ZM17.4156 12.0758L16.6657 12.0633C16.6386 13.698 16.517 14.47 16.1706 15.0352L16.8101 15.4271L17.4496 15.819C18.0365 14.8613 18.1389 13.6922 18.1655 12.0882L17.4156 12.0758ZM17.0074 12.0758V12.8258H17.4156V12.0758V11.3258H17.0074V12.0758Z" fill="#0B3C5D"/>
</svg>
