<svg width="24" height="24" viewBox="0 0 24 24" fill="none" xmlns="http://www.w3.org/2000/svg">
<path opacity="0.26" fill-rule="evenodd" clip-rule="evenodd" d="M10.8371 14.545L15.3382 21.8473C15.5351 22.1673 15.8428 22.1636 15.9671 22.1464C16.0914 22.1292 16.3905 22.0529 16.4988 21.6898L22.1272 2.6801C22.2257 2.34409 22.0448 2.11516 21.9635 2.03393C21.8848 1.9527 21.6595 1.77915 21.3334 1.87146L2.31014 7.44206C1.94952 7.54791 1.87075 7.85069 1.85352 7.975C1.83628 8.10177 1.83136 8.41562 2.15014 8.61624L9.53616 13.2354L16.0619 6.64081C16.42 6.27895 17.0047 6.27526 17.3677 6.63343C17.7308 6.99159 17.7333 7.57745 17.3751 7.9393L10.8371 14.545ZM15.8711 24C15.0145 24 14.2292 23.5643 13.7664 22.816L8.99461 15.073L1.17165 10.1806C0.328556 9.65258 -0.11207 8.71224 0.0245482 7.72391C0.159936 6.73558 0.838107 5.95033 1.79075 5.67094L20.814 0.100344C21.6891 -0.155662 22.6269 0.0868052 23.2719 0.729282C23.9168 1.37791 24.1568 2.32563 23.8959 3.20442L18.2675 22.2129C17.9856 23.1692 17.1979 23.8449 16.212 23.9766C16.0963 23.9914 15.9843 24 15.8711 24Z" fill="#0B3C5D"/>
</svg>
