<svg width="21" height="21" viewBox="0 0 21 21" fill="none" xmlns="http://www.w3.org/2000/svg">
<path d="M10.0738 10.0734V17.6284M10.0738 10.0734L7.97519 11.7523M10.0738 10.0734L12.1724 11.7523M4.22621 7.65323C3.43227 7.85301 2.7386 8.33584 2.27554 9.01099C1.81248 9.68614 1.6119 10.5072 1.71147 11.3198C1.81105 12.1324 2.20394 12.8807 2.81632 13.424C3.4287 13.9674 4.21843 14.2684 5.03712 14.2706H5.87657" stroke="#191D23" stroke-width="1.6789" stroke-linecap="round" stroke-linejoin="round"/>
<path d="M13.2887 5.99195C13.0018 4.85582 12.2936 3.87129 11.3077 3.23794C10.3218 2.60459 9.13201 2.36981 7.97943 2.58119C6.82685 2.79257 5.79777 3.43431 5.1008 4.3763C4.40382 5.31829 4.0911 6.49006 4.22604 7.65406C4.22604 7.65406 4.35447 8.39446 4.61722 8.81418" stroke="#191D23" stroke-width="1.6789" stroke-linecap="round" stroke-linejoin="round"/>
<path d="M14.2715 14.2706C14.8642 14.2702 15.45 14.1443 15.9905 13.9011C16.5311 13.658 17.0139 13.3031 17.4074 12.8599C17.8009 12.4167 18.0961 11.8951 18.2735 11.3296C18.4508 10.7641 18.5065 10.1674 18.4366 9.57886C18.3668 8.99031 18.1731 8.42321 17.8683 7.9149C17.5636 7.40659 17.1546 6.9686 16.6683 6.62974C16.182 6.29089 15.6295 6.05886 15.0471 5.94893C14.4647 5.839 13.8656 5.85366 13.2893 5.99194L12.1729 6.29582" stroke="#191D23" stroke-width="1.6789" stroke-linecap="round" stroke-linejoin="round"/>
</svg>
