<svg width="20" height="20" viewBox="0 0 20 20" fill="none" xmlns="http://www.w3.org/2000/svg">
<path d="M13.3332 4.99996H12.5832C12.5832 6.42669 11.4266 7.58329 9.99984 7.58329V8.33329V9.08329C12.255 9.08329 14.0832 7.25512 14.0832 4.99996H13.3332ZM9.99984 8.33329V7.58329C8.5731 7.58329 7.4165 6.42669 7.4165 4.99996H6.6665H5.9165C5.9165 7.25512 7.74467 9.08329 9.99984 9.08329V8.33329ZM6.6665 4.99996H7.4165C7.4165 3.57322 8.5731 2.41663 9.99984 2.41663V1.66663V0.916626C7.74467 0.916626 5.9165 2.7448 5.9165 4.99996H6.6665ZM9.99984 1.66663V2.41663C11.4266 2.41663 12.5832 3.57322 12.5832 4.99996H13.3332H14.0832C14.0832 2.7448 12.255 0.916626 9.99984 0.916626V1.66663ZM7.49984 10.8333V11.5833H12.4998V10.8333V10.0833H7.49984V10.8333ZM12.4998 17.5V16.75H7.49984V17.5V18.25H12.4998V17.5ZM7.49984 17.5V16.75C6.0731 16.75 4.9165 15.5934 4.9165 14.1666H4.1665H3.4165C3.4165 16.4218 5.24467 18.25 7.49984 18.25V17.5ZM15.8332 14.1666H15.0832C15.0832 15.5934 13.9266 16.75 12.4998 16.75V17.5V18.25C14.755 18.25 16.5832 16.4218 16.5832 14.1666H15.8332ZM12.4998 10.8333V11.5833C13.9266 11.5833 15.0832 12.7399 15.0832 14.1666H15.8332H16.5832C16.5832 11.9115 14.755 10.0833 12.4998 10.0833V10.8333ZM7.49984 10.8333V10.0833C5.24467 10.0833 3.4165 11.9115 3.4165 14.1666H4.1665H4.9165C4.9165 12.7399 6.0731 11.5833 7.49984 11.5833V10.8333Z" fill="white"/>
</svg>
